<?xml version="1.0" standalone="no"?>
<!DOCTYPE svg PUBLIC "-//W3C//DTD SVG 1.1//EN" "http://www.w3.org/Graphics/SVG/1.1/DTD/svg11.dtd" >
<svg xmlns="http://www.w3.org/2000/svg">
<metadata>Generated by IcoMoon</metadata>
<defs>
<font id="fisfont" horiz-adv-x="1024">
<font-face units-per-em="1024" ascent="960" descent="-64" />
<missing-glyph horiz-adv-x="1024" />
<glyph unicode="&#x20;" horiz-adv-x="512" d="" />
<glyph unicode="&#xe900;" glyph-name="Accounts" d="M609.28 549.262c18.705-0.692 36.425-3.762 53.232-8.92l-1.463 0.386c18.144-5.569 33.88-14.132 47.466-25.228l-0.248 0.197-42.667-48.356c-7.425 7.27-16.326 13.064-26.209 16.887l-0.528 0.18c-8.689 3.81-18.778 6.267-29.371 6.818l-0.212 0.009v-70.542l34.702-11.947c12.388-4.597 23.106-10.551 32.738-17.862l-0.312 0.227c9.609-7.291 17.583-16.171 23.661-26.319l0.233-0.419c5.769-10.659 9.16-23.335 9.16-36.802 0-1.062-0.021-2.119-0.063-3.171l0.005 0.151c0.018-0.69 0.028-1.501 0.028-2.316 0-14.415-3.154-28.094-8.809-40.383l0.248 0.601c-5.6-11.695-13.271-21.55-22.628-29.477l-0.128-0.105c-9.352-7.737-20.318-13.931-32.27-17.991l-0.725-0.214c-11.313-4.005-24.369-6.477-37.953-6.823l-0.163-0.003v-32.427h-32.427v32.427c-20.624 0.86-40.062 4.75-58.268 11.238l1.379-0.429c-19.799 6.716-36.856 16.804-51.347 29.711l0.147-0.129 23.324 23.893 22.187 24.462c4.031-4.467 8.508-8.402 13.398-11.78l0.255-0.166c4.73-3.347 10.135-6.565 15.788-9.355l0.71-0.317 17.067-6.258c2.393-0.357 5.155-0.56 7.964-0.56s5.571 0.204 8.272 0.597l-0.307-0.037v74.524q-18.773 5.12-36.409 11.947c-11.75 4.379-21.911 10.144-30.966 17.253l0.246-0.186c-17.779 14.084-29.082 35.673-29.082 59.901 0 1.141 0.025 2.277 0.075 3.406l-0.006-0.161c-0.003 0.259-0.005 0.565-0.005 0.871 0 13.803 3.367 26.82 9.325 38.274l-0.218-0.46c6.058 11.686 14.080 21.525 23.732 29.453l0.162 0.129c9.065 7.563 19.626 13.729 31.12 17.966l0.738 0.238c10.21 3.932 22.025 6.575 34.343 7.377l0.359 0.019v30.151h32.427zM576.853 492.373c-8.307-0.926-15.711-4.209-21.686-9.157l0.068 0.055c-5.951-5.042-9.703-12.52-9.703-20.875 0-0.461 0.011-0.92 0.034-1.376l-0.003 0.064c-0.026-0.45-0.041-0.976-0.041-1.506 0-7.899 3.286-15.031 8.565-20.103l0.009-0.009c6.295-5.246 13.983-9.039 22.427-10.753l0.329-0.056zM607.573 285.867c0.207-0.005 0.452-0.008 0.697-0.008 17.595 0 31.858 14.263 31.858 31.858 0 1.004-0.046 1.997-0.137 2.978l0.009-0.126c0.051 0.643 0.080 1.391 0.080 2.147 0 8.346-3.524 15.87-9.166 21.163l-0.016 0.015c-6.582 5.287-14.369 9.388-22.859 11.832l-0.466 0.115zM846.507 645.973c-16.965 17.010-35.572 32.366-55.57 45.813l-1.319 0.836c-56.326 133.929-186.448 226.257-338.135 226.257-202.023 0-365.796-163.772-365.796-365.796 0-101.025 40.954-192.485 107.166-258.683l0.001-0.001c16.968-17.003 35.574-32.357 55.567-45.811l1.322-0.838c56.326-133.929 186.448-226.257 338.135-226.257 202.023 0 365.796 163.772 365.796 365.796 0 101.025-40.954 192.485-107.166 258.683l-0.001 0.001zM142.222 552.107c0 0.014 0 0.030 0 0.047 0 170.604 138.302 308.907 308.907 308.907 85.314 0 162.55-34.585 218.453-90.499l0.001-0.001c9.952-10.477 19.289-21.799 27.8-33.75l0.644-0.952c-32.985 10.811-70.947 17.046-110.364 17.046-202.016 0-365.784-163.761-365.796-365.774v-0.001c0.089-15.533 1.12-30.732 3.039-45.653l-0.194 1.849h2.844c-52.084 54.151-84.442 127.603-85.332 208.608l-0.002 0.174zM806.116 168.676c-55.904-55.915-133.14-90.5-218.453-90.5-170.604 0-308.907 138.302-308.907 308.907s138.302 308.907 308.907 308.907c170.588 0 308.88-138.276 308.907-308.858v-0.002c0.001-0.294 0.002-0.642 0.002-0.99 0-84.994-34.581-161.911-90.44-217.449l-0.015-0.015z" />
<glyph unicode="&#xe901;" glyph-name="Action" d="M732.729 434.916l-40.391 40.391 148.48 147.911-148.48 148.48 40.391 40.391 188.302-188.871-188.302-188.302zM909.084 132.836h-794.169v518.827h738.418v-56.889h-681.529v-405.049h680.391v230.969h56.889v-287.858z" />
<glyph unicode="&#xe902;" glyph-name="Approval" d="M485.831 302.933l-129.707 112.64 37.547 43.236 84.196-73.387 142.791 183.751 44.942-34.702-179.769-231.538zM512-3.129c-0.169-0.001-0.369-0.002-0.57-0.002-25.464 0-48.656 9.727-66.064 25.668l0.074-0.066-41.529 38.116c-7.302 6.846-17.153 11.050-27.985 11.050-1.565 0-3.109-0.088-4.628-0.259l0.186 0.017-56.889-6.827c-3.034-0.33-6.554-0.518-10.117-0.518-47.398 0-87.015 33.313-96.715 77.802l-0.12 0.654-11.378 56.889c-2.427 11.979-9.737 21.9-19.716 27.77l-0.195 0.106-48.924 27.876c-29.994 16.957-49.91 48.637-49.91 84.967 0 14.786 3.299 28.802 9.201 41.352l-0.251-0.594 23.324 51.2c2.352 5.009 3.725 10.877 3.725 17.067s-1.373 12.058-3.831 17.318l0.106-0.252-23.324 51.2c-5.651 11.955-8.95 25.971-8.95 40.757 0 36.331 19.916 68.010 49.426 84.715l0.484 0.252 49.493 27.876c10.224 5.92 17.558 15.867 19.869 27.616l0.043 0.26 11.378 56.889c10.663 44.037 49.739 76.233 96.336 76.233 3.739 0 7.43-0.207 11.062-0.611l-0.447 0.040 56.889-6.827c1.273-0.138 2.749-0.217 4.244-0.217 10.891 0 20.803 4.192 28.209 11.051l-0.027-0.025 41.529 38.116c17.422 15.913 40.71 25.661 66.276 25.661s48.854-9.748 66.352-25.729l-0.076 0.069 41.529-38.116c7.38-6.834 17.291-11.026 28.182-11.026 1.495 0 2.971 0.079 4.425 0.233l-0.181-0.016 56.889 6.827c3.034 0.33 6.554 0.518 10.117 0.518 47.398 0 87.015-33.313 96.715-77.802l0.12-0.654 11.378-56.889c2.353-12.009 9.687-21.955 19.715-27.77l0.196-0.105 49.493-27.876c29.994-16.957 49.91-48.637 49.91-84.967 0-14.786-3.299-28.802-9.201-41.352l0.251 0.594-23.893-51.769c-2.352-5.009-3.725-10.877-3.725-17.067s1.373-12.058 3.831-17.318l-0.106 0.252 23.893-51.2c5.782-12.075 9.16-26.248 9.16-41.209 0-36.415-20.009-68.157-49.632-84.832l-0.488-0.252-49.493-27.876c-10.224-5.92-17.558-15.867-19.869-27.616l-0.043-0.26-11.378-56.889c-9.311-45.121-48.715-78.561-95.929-78.561-3.884 0-7.714 0.226-11.48 0.666l0.458-0.044-56.889 6.258c-1.513 0.207-3.262 0.325-5.039 0.325-10.658 0-20.323-4.247-27.396-11.142l0.008 0.008-41.529-38.116c-16.652-13.545-38.122-21.748-61.507-21.748-1.777 0-3.544 0.047-5.298 0.141l0.245-0.010zM376.036 128.284c25.742-0.013 49.157-9.963 66.619-26.223l-0.059 0.054 41.529-38.116c7.357-7.108 17.389-11.487 28.444-11.487s21.087 4.38 28.456 11.499l-0.012-0.011 41.529 38.116c17.421 15.912 40.709 25.659 66.273 25.659 3.909 0 7.766-0.228 11.556-0.671l-0.46 0.044 56.889-6.827c1.724-0.264 3.713-0.415 5.737-0.415 19.526 0 35.77 14.054 39.169 32.598l0.037 0.244 11.378 56.889c4.964 28.895 22.011 53.045 45.649 67.453l0.431 0.244 49.493 27.876c12.543 7.162 20.861 20.454 20.861 35.69 0 6.248-1.399 12.168-3.9 17.467l0.106-0.249-23.324 51.2c-5.627 11.933-8.912 25.921-8.912 40.676s3.285 28.742 9.163 41.271l-0.251-0.596 23.893 51.2c2.395 5.049 3.794 10.969 3.794 17.217 0 15.235-8.318 28.528-20.66 35.584l-0.201 0.106-50.062 23.893c-24.387 13.976-41.95 37.508-47.678 65.359l-0.109 0.632-11.378 56.889c-3.967 18.802-20.419 32.711-40.121 32.711-1.699 0-3.374-0.103-5.019-0.304l0.198 0.020-56.889-6.827c-3.104-0.345-6.702-0.542-10.346-0.542-25.887 0-49.452 9.937-67.091 26.204l0.068-0.062-41.529 38.116c-7.357 7.108-17.389 11.487-28.444 11.487s-21.087-4.38-28.456-11.499l0.012 0.011-41.529-38.116c-17.496-15.899-40.844-25.633-66.466-25.633-3.841 0-7.632 0.219-11.359 0.645l0.456-0.042-56.889 6.827c-1.447 0.181-3.122 0.285-4.821 0.285-19.701 0-36.154-13.91-40.074-32.444l-0.047-0.267-11.378-56.889c-5.145-28.359-21.914-52.035-45.088-66.318l-0.423-0.242-49.493-27.876c-12.627-6.995-21.034-20.241-21.034-35.45 0-6.347 1.464-12.352 4.072-17.695l-0.105 0.239 23.324-51.2c5.592-11.94 8.855-25.927 8.855-40.676s-3.263-28.736-9.107-41.278l0.252 0.602-23.324-51.2c-2.395-5.049-3.794-10.969-3.794-17.217 0-15.235 8.318-28.528 20.66-35.584l0.201-0.106 49.493-23.893c24.337-14.032 41.876-37.538 47.675-65.352l0.111-0.639 11.378-56.889c4.219-18.812 20.778-32.657 40.57-32.657 1.54 0 3.060 0.084 4.557 0.247l-0.185-0.016 56.889 6.827z" />
<glyph unicode="&#xe903;" glyph-name="Arrow" d="M608.142 150.471l-39.822 40.391 257.138 257.138-257.138 257.138 39.822 40.391 297.529-297.529-297.529-297.529zM158.151 476.444h707.129v-56.889h-707.129v56.889z" />
<glyph unicode="&#xe904;" glyph-name="Arrow_down" d="M752.64 568.604l-240.64-241.209-240.64 241.209h481.28zM512 287.573l-309.476 309.476h618.951zM341.333 540.16l170.667-170.667 170.667 170.667z" />
<glyph unicode="&#xe905;" glyph-name="Dashboard" d="M234.382 366.080l-69.404 15.36c37.362 160.151 178.24 277.867 346.861 279.323l0.162 0.001c168.778-0.688 309.759-118.865 345.433-276.947l0.451-2.377-69.404-14.791c-29.064 128.1-141.673 222.393-276.412 223.004h-0.068c-135.040-1.222-247.735-95.427-277.235-221.63l-0.383-1.943zM492.109 317.434l168.951 168.951 40.227-40.227-168.951-168.951-40.227 40.227zM512 230.684c-40.216 0-72.818 32.602-72.818 72.818s32.602 72.818 72.818 72.818c40.216 0 72.818-32.602 72.818-72.818v0c0-40.216-32.602-72.818-72.818-72.818v0zM512 319.431c-8.797 0-15.929-7.132-15.929-15.929s7.132-15.929 15.929-15.929c8.797 0 15.929 7.132 15.929 15.929v0c0 8.797-7.132 15.929-15.929 15.929v0zM512 247.182c-31.419 0-56.889 25.47-56.889 56.889s25.47 56.889 56.889 56.889c31.419 0 56.889-25.47 56.889-56.889v0c0-31.419-25.47-56.889-56.889-56.889v0zM512 304.071v0zM512 81.636c-0.026 0-0.057 0-0.088 0-70.088 0-130.953 39.485-161.566 97.423l-0.479 0.995h-298.098l-5.689 21.049c-11.25 38.879-17.721 83.537-17.721 129.707 0 267.060 216.495 483.556 483.556 483.556 0.030 0 0.060 0 0.090 0h-0.005c0.676 0.003 1.476 0.005 2.277 0.005 265.405 0 480.634-214.831 481.279-480.086v-0.062c-0.307-46.714-7.143-91.711-19.64-134.287l0.866 3.443-5.689-20.48h-295.822c-30.559-60.439-92.148-101.173-163.259-101.262h-0.012zM95.573 236.942h292.409l7.396-18.204c18.815-47.599 64.427-80.658 117.76-80.658s98.945 33.059 117.461 79.803l0.299 0.855 7.396 18.204h290.133c6.526 27.805 10.267 59.731 10.267 92.531 0 1.669-0.010 3.337-0.029 5.002l0.002-0.253c-0.644 233.898-190.403 423.259-424.39 423.259-0.801 0-1.601-0.002-2.4-0.007l0.123 0.001c-235.392-1.607-425.706-192.321-426.666-427.712v-0.092c0-0.15 0-0.327 0-0.504 0-32.692 3.731-64.512 10.792-95.058l-0.551 2.833z" />
<glyph unicode="&#xe906;" glyph-name="Back" d="M262.827 368.356l-188.302 188.871 188.302 188.302 40.391-40.391-148.48-147.911 148.48-148.48-40.391-40.391zM765.724 180.053h-277.049v56.889h277.618c1.952-0.136 4.231-0.213 6.528-0.213 32.887 0 62.070 15.856 80.323 40.339l0.189 0.265c18.91 27.847 30.191 62.205 30.191 99.198 0 1.326-0.014 2.648-0.043 3.967l0.003-0.197c0 69.973-35.84 145.636-113.778 145.636h-627.484v56.889h625.778c113.778 0 170.667-101.831 170.667-202.524s-59.733-200.249-172.942-200.249z" />
<glyph unicode="&#xe907;" glyph-name="Bank" d="M550.116 579.413h56.889v-415.289h-56.889v415.289zM416.996 579.413h56.889v-415.289h-56.889v415.289zM819.2 579.413h56.889v-415.289h-56.889v415.289zM686.649 579.413h56.889v-415.289h-56.889v415.289zM280.462 579.413h56.889v-415.289h-56.889v415.289zM147.911 579.413h56.889v-415.289h-56.889v415.289zM930.133 549.831h-841.387v108.089l423.253 207.644 420.409-207.644zM145.636 606.72h727.609v15.929l-361.244 179.2-366.364-179.2zM113.778 136.818h796.444v-56.889h-796.444v56.889zM56.889 49.778h910.222v-56.889h-910.222v56.889z" />
<glyph unicode="&#xe908;" glyph-name="BillPay" d="M770.276-35.556h-726.471v944.924h726.471v-142.791h-56.889v85.902h-612.693v-831.147h612.693v116.622h56.889v-173.511zM199.111 694.329h307.769v-56.889h-307.769v56.889zM199.111 236.373h307.769v-56.889h-307.769v56.889zM199.111 541.867h244.053v-56.889h-244.053v56.889zM199.111 388.836h244.053v-56.889h-244.053v56.889zM750.933 203.947c-135.101 0-244.622 109.521-244.622 244.622s109.521 244.622 244.622 244.622c135.101 0 244.622-109.521 244.622-244.622 0-0.2 0-0.4-0.001-0.6v0.031c-0.645-134.727-109.85-243.732-244.591-244.053h-0.031zM750.933 636.302c-103.682-0.001-187.732-84.051-187.732-187.733s84.051-187.733 187.733-187.733c103.482 0 187.409 83.727 187.732 187.134v0.031c0.001 0.169 0.001 0.369 0.001 0.569 0 103.682-84.051 187.733-187.733 187.733 0 0-0.001 0-0.001 0v0zM765.156 556.658c12.535-0.457 24.415-2.504 35.685-5.947l-0.983 0.258c12.025-3.632 22.458-9.281 31.451-16.626l-0.162 0.129-28.444-32.427c-4.91 4.81-10.775 8.666-17.282 11.254l-0.354 0.124c-5.851 2.579-12.647 4.221-19.787 4.547l-0.124 0.005v-47.218l23.324-7.964c8.258-3.166 15.397-7.193 21.828-12.1l-0.21 0.154c6.422-4.972 11.742-11.018 15.77-17.911l0.159-0.294c3.958-7.236 6.286-15.852 6.286-25.012 0-0.607-0.010-1.211-0.030-1.813l0.002 0.088c0.019-0.578 0.029-1.258 0.029-1.94 0-9.605-2.107-18.719-5.883-26.903l0.165 0.399c-3.719-7.905-8.908-14.55-15.267-19.836l-0.093-0.075c-6.124-5.083-13.309-9.149-21.145-11.807l-0.473-0.139c-7.423-2.634-15.991-4.279-24.905-4.548l-0.127-0.003v-21.618h-25.031v21.618c-14.014 0.536-27.238 3.202-39.591 7.683l0.907-0.287c-13.207 4.54-24.576 11.327-34.224 19.992l0.091-0.081 15.36 15.929 15.36 16.498c2.68-2.989 5.665-5.613 8.934-7.855l0.168-0.109 10.809-6.258 11.378-3.982h10.809v50.062l-24.462 7.964c-7.837 2.886-14.615 6.732-20.635 11.496l0.155-0.118c-5.859 4.596-10.637 10.283-14.085 16.783l-0.137 0.284c-3.258 6.709-5.162 14.593-5.162 22.922 0 0.742 0.015 1.48 0.045 2.215l-0.003-0.105c-0.004 0.235-0.006 0.513-0.006 0.791 0 9.026 2.102 17.561 5.843 25.142l-0.149-0.333c3.894 7.624 9.051 14.054 15.266 19.265l0.094 0.077c5.993 4.962 12.971 9.009 20.559 11.79l0.49 0.157c6.858 2.725 14.797 4.555 23.085 5.107l0.239 0.013v20.48h21.618zM743.538 518.542c-5.481-0.747-10.336-2.987-14.265-6.293l0.042 0.035c-3.86-3.356-6.287-8.276-6.287-13.761 0-0.362 0.011-0.722 0.031-1.079l-0.002 0.049c-0.017-0.292-0.026-0.634-0.026-0.978 0-5.215 2.193-9.918 5.706-13.236l0.009-0.008c4.235-3.593 9.428-6.189 15.14-7.358l0.22-0.038zM764.018 380.302c0.020 0 0.044 0 0.067 0 11.939 0 21.618 9.679 21.618 21.618 0 0.601-0.025 1.196-0.073 1.784l0.005-0.077c0.019 0.325 0.031 0.705 0.031 1.087 0 5.644-2.418 10.724-6.274 14.26l-0.014 0.013c-4.334 3.508-9.46 6.24-15.050 7.886l-0.31 0.078z" />
<glyph unicode="&#xe909;" glyph-name="Bookmark" d="M173.511-36.124v967.68h559.787v-118.329h-56.889v61.44h-446.009v-789.618l225.28 187.733 220.729-183.182v137.671h56.889v-258.276l-277.618 229.831-282.169-234.951zM704.853 285.298c-129.132 0-233.813 104.682-233.813 233.813s104.682 233.813 233.813 233.813c129.132 0 233.813-104.682 233.813-233.813v0c0-129.132-104.682-233.813-233.813-233.813v0zM704.853 695.467c-97.712-0.001-176.924-79.212-176.924-176.924s79.212-176.924 176.924-176.924c97.713 0 176.924 79.212 176.924 176.924 0 0.2 0 0.4-0.001 0.6v-0.031c0 97.713-79.212 176.924-176.924 176.924v0zM677.547 611.271h56.889v-184.889h-56.889v184.889zM613.262 547.556h184.889v-56.889h-184.889v56.889z" />
<glyph unicode="&#xe90a;" glyph-name="Building" d="M442.027 79.929h-56.889v766.293h-246.329v-766.293h-56.889v823.182h360.107v-823.182zM954.027 79.929h-56.889v479.573h-483.556v56.889h540.444v-536.462zM180.338 793.316h56.889v-89.316h-56.889v89.316zM180.338 644.836h56.889v-89.316h-56.889v89.316zM180.338 496.924h56.889v-89.316h-56.889v89.316zM180.338 348.444h56.889v-89.316h-56.889v89.316zM180.338 200.533h56.889v-89.316h-56.889v89.316zM282.738 793.316h56.889v-89.316h-56.889v89.316zM282.738 644.836h56.889v-89.316h-56.889v89.316zM282.738 496.924h56.889v-89.316h-56.889v89.316zM282.738 348.444h56.889v-89.316h-56.889v89.316zM282.738 200.533h56.889v-89.316h-56.889v89.316zM487.538 496.924h56.889v-89.316h-56.889v89.316zM487.538 348.444h56.889v-89.316h-56.889v89.316zM589.938 496.924h56.889v-89.316h-56.889v89.316zM589.938 348.444h56.889v-89.316h-56.889v89.316zM692.338 496.924h56.889v-89.316h-56.889v89.316zM692.338 348.444h56.889v-89.316h-56.889v89.316zM794.738 496.924h56.889v-89.316h-56.889v89.316zM794.738 348.444h56.889v-89.316h-56.889v89.316zM897.138 496.924h56.889v-89.316h-56.889v89.316zM897.138 348.444h56.889v-89.316h-56.889v89.316zM897.138 200.533h56.889v-89.316h-56.889v89.316zM48.924 49.778h926.151v-56.889h-926.151v56.889zM749.227-7.111h-159.289v207.076h159.289zM646.827 49.778h45.511v93.298h-45.511z" />
<glyph unicode="&#xe90b;" glyph-name="Calendar" d="M337.351 368.924h26.738c3.32-0.262 7.189-0.412 11.093-0.412s7.773 0.15 11.601 0.443l-0.508-0.031c7.427 1.046 14.139 3.243 20.259 6.422l-0.348-0.164c6.62 3.704 11.882 9.148 15.261 15.718l0.099 0.211c3.594 5.866 5.722 12.968 5.722 20.566 0 0.57-0.012 1.137-0.036 1.701l0.003-0.081c0.007 0.256 0.010 0.556 0.010 0.858 0 11.387-5.31 21.533-13.589 28.098l-0.074 0.057c-8.857 7.103-20.231 11.4-32.609 11.4-0.536 0-1.070-0.008-1.602-0.024l0.078 0.002c-0.61 0.028-1.326 0.043-2.046 0.043-11.294 0-21.684-3.872-29.915-10.361l0.103 0.078c-8.005-6.381-13.844-15.175-16.427-25.273l-0.071-0.327-91.022 17.067c4.084 16.485 10.954 30.942 20.158 43.591l-0.247-0.356c8.61 10.758 18.989 19.686 30.764 26.459l0.525 0.278c11.633 6.944 25.12 12.434 39.44 15.744l0.951 0.185c13.734 3.256 29.503 5.122 45.709 5.122 0.331 0 0.661-0.001 0.991-0.002h-0.051c0.183 0.001 0.399 0.001 0.615 0.001 17.373 0 34.212-2.284 50.234-6.567l-1.356 0.308c15.593-2.53 29.57-7.71 42.089-15.097l-0.56 0.306c12.038-8.857 21.805-20.079 28.755-33.038l0.258-0.526c6.834-13.357 10.839-29.137 10.839-45.852 0-0.88-0.011-1.758-0.033-2.633l0.003 0.13c0.053-1.162 0.084-2.524 0.084-3.894 0-19.908-6.431-38.313-17.329-53.253l0.179 0.257c-11.867-15.491-29.187-26.287-49.047-29.522l-0.446-0.060c11.484-1.366 21.885-4.997 31.087-10.441l-0.367 0.201c8.93-5.517 16.471-12.333 22.612-20.286l0.144-0.194c6.745-8.060 12.16-17.509 15.739-27.817l0.19-0.627c3.21-9.682 5.080-20.829 5.12-32.407v-0.019c0.016-0.698 0.025-1.52 0.025-2.344 0-17.795-4.211-34.606-11.692-49.491l0.289 0.635c-7.446-14.546-17.604-26.705-29.907-36.227l-0.245-0.182c-12.583-9.597-27.4-17.031-43.476-21.41l-0.897-0.208c-16.184-4.695-34.775-7.396-53.997-7.396-0.017 0-0.034 0-0.051 0h0.003c-2.605-0.15-5.651-0.235-8.718-0.235-31.063 0-60.078 8.766-84.707 23.96l0.697-0.4c-25.834 17.254-44.025 44.216-49.398 75.557l-0.096 0.674 86.471 20.48c2.615-13.616 9.777-25.235 19.812-33.486l0.099-0.079c9.572-7.569 21.816-12.141 35.128-12.141 1.652 0 3.289 0.070 4.905 0.209l-0.211-0.014c1.37-0.129 2.962-0.202 4.572-0.202 13.633 0 26.036 5.27 35.282 13.884l-0.031-0.029c8.134 9.027 13.11 21.040 13.11 34.214 0 0.572-0.009 1.141-0.028 1.708l0.002-0.083c0.014 0.401 0.022 0.872 0.022 1.345 0 8.862-2.776 17.076-7.506 23.82l0.088-0.133c-4.463 6.044-10.434 10.735-17.365 13.556l-0.27 0.097c-7.213 2.834-15.558 4.673-24.273 5.112l-0.189 0.008h-47.218zM708.267 429.796l-77.938-68.836-46.080 54.044 126.293 106.382h76.8v-387.413h-79.076v295.822zM696.889 901.973h56.889v-178.631h-56.889v178.631zM286.151 901.973h56.889v-178.631h-56.889v178.631zM989.867 633.458h-940.373v180.338h940.373zM105.813 690.347h827.164v66.56h-826.596zM989.867-34.418h-940.373v724.764h940.373zM105.813 22.471h827.164v610.987h-826.596z" />
<glyph unicode="&#xe90c;" glyph-name="Camera" d="M512 199.964c-123.476 0-223.573 100.097-223.573 223.573s100.097 223.573 223.573 223.573c123.476 0 223.573-100.097 223.573-223.573v0c0-123.476-100.097-223.573-223.573-223.573v0zM512 590.222c-92.057 0-166.684-74.627-166.684-166.684s74.627-166.684 166.684-166.684c92.057 0 166.684 74.627 166.684 166.684v0c0 92.057-74.627 166.684-166.684 166.684v0zM978.489 49.778h-932.978v682.667h190.578l79.644 142.222h392.533l79.644-142.222h190.578zM102.4 106.667h819.2v568.889h-167.253l-79.644 142.222h-325.404l-79.644-142.222h-167.253z" />
<glyph unicode="&#xe90d;" glyph-name="Card" d="M991.004 413.298l-137.671 307.2c-13.85 29.961-43.647 50.375-78.211 50.375-12.893 0-25.123-2.84-36.097-7.93l0.531 0.221-293.547-132.551h-332.231c-47.128 0-85.333-38.205-85.333-85.333v0-336.782c-0.001-0.169-0.002-0.369-0.002-0.569 0-47.128 38.205-85.333 85.333-85.333 0.001 0 0.001 0 0.002 0h153.031l13.653-30.151c9.406-20.779 26.325-36.772 47.205-44.747l0.581-0.195c9.664-4.122 20.908-6.519 32.711-6.519s23.047 2.396 33.27 6.729l-0.559-0.211 162.133 72.818h164.409c47.128 0 85.333 38.205 85.333 85.333v0 27.307l142.791 64.284c30.532 13.447 51.461 43.441 51.461 78.323 0 13.741-3.248 26.724-9.018 38.222l0.223-0.492zM369.778 101.547c-3.42-1.572-7.421-2.489-11.635-2.489-11.457 0-21.332 6.774-25.838 16.534l-0.073 0.176v4.551h80.213zM762.311 710.827c3.42 1.572 7.421 2.489 11.635 2.489 11.457 0 21.332-6.774 25.838-16.534l0.073-0.176 70.542-157.013-65.991-29.582v35.271c0 47.128-38.205 85.333-85.333 85.333v0h-134.827zM748.089 207.929c0-15.709-12.735-28.444-28.444-28.444v0h-605.867c-15.709 0-28.444 12.735-28.444 28.444v0 337.351c0 15.709 12.735 28.444 28.444 28.444v0h608.711c15.709 0 28.444-12.735 28.444-28.444v0-336.782zM924.444 351.858l-119.467-54.044v123.449l99.556 44.942 34.133-75.093c1.996-3.789 3.168-8.28 3.168-13.045 0-11.718-7.085-21.78-17.205-26.138l-0.185-0.071zM150.187 290.987h349.867v-56.889h-349.867v56.889zM150.187 389.973h530.773v-56.889h-530.773v56.889zM150.187 490.098h91.591v-74.524h-91.591v74.524z" />
<glyph unicode="&#xe90e;" glyph-name="Chart" d="M233.813 278.471l-41.529 39.253 126.862 135.396 87.040-75.093 122.311 140.516 93.298-98.987 167.822 196.836 43.236-36.978-208.782-245.191-93.867 99.556-118.329-135.396-88.178 75.662-89.884-95.573zM967.111 65.707h-910.222v729.884h910.222zM113.778 122.596h796.444v616.107h-796.444z" />
<glyph unicode="&#xe90f;" glyph-name="Chat" d="M368.64 545.28c0-21.051-17.065-38.116-38.116-38.116s-38.116 17.065-38.116 38.116c0 21.051 17.065 38.116 38.116 38.116v0c21.051 0 38.116-17.065 38.116-38.116v0zM330.524 478.72c-36.267 0.64-65.422 30.19-65.422 66.55 0 36.76 29.8 66.56 66.56 66.56 36.757 0 66.555-29.794 66.56-66.55v0c0-0.003 0-0.006 0-0.010 0-36.76-29.8-66.56-66.56-66.56-0.4 0-0.799 0.004-1.198 0.011l0.060-0.001zM330.524 554.951c-5.341 0-9.671-4.33-9.671-9.671v0c0-10.809 19.342-10.809 19.342 0 0 5.341-4.33 9.671-9.671 9.671v0zM550.116 545.28c0-21.051-17.065-38.116-38.116-38.116s-38.116 17.065-38.116 38.116c0 21.051 17.065 38.116 38.116 38.116v0c21.051 0 38.116-17.065 38.116-38.116v0zM512 478.72c-36.76 0-66.56 29.8-66.56 66.56s29.8 66.56 66.56 66.56c36.76 0 66.56-29.8 66.56-66.56v0c0-36.76-29.8-66.56-66.56-66.56v0zM512 554.951c-5.341 0-9.671-4.33-9.671-9.671v0c0-10.809 19.911-10.809 19.911 0 0 0.005 0 0.011 0 0.017 0 5.341-4.33 9.671-9.671 9.671-0.2 0-0.399-0.006-0.596-0.018l0.027 0.001zM732.16 545.28c0-21.051-17.065-38.116-38.116-38.116s-38.116 17.065-38.116 38.116c0 21.051 17.065 38.116 38.116 38.116v0c21.051 0 38.116-17.065 38.116-38.116v0zM693.476 478.72c-36.76 0-66.56 29.8-66.56 66.56s29.8 66.56 66.56 66.56c36.76 0 66.56-29.8 66.56-66.56v0c0-36.76-29.8-66.56-66.56-66.56v0zM693.476 554.951c-5.341 0-9.671-4.33-9.671-9.671v0c0-10.809 19.911-10.809 19.911 0 0 0.005 0 0.011 0 0.017 0 5.341-4.33 9.671-9.671 9.671-0.2 0-0.399-0.006-0.596-0.018l0.027 0.001zM212.764-23.040v236.089h-155.876v666.169h910.222v-666.169h-517.689zM113.778 269.938h155.876v-155.876l155.876 155.876h484.693v552.391h-796.444z" />
<glyph unicode="&#xe910;" glyph-name="Chevron" d="M512 277.902l-279.893 279.893 40.391 39.822 239.502-239.502 239.502 239.502 40.391-39.822-279.893-279.893z" />
<glyph unicode="&#xe911;" glyph-name="Clipboard" d="M301.511 106.667v48.924h207.644v-48.924zM301.511 256.284v49.493h426.098v-49.493zM301.511 407.040v51.769h426.098v-48.924zM301.511 561.778v47.787h426.098v-47.787zM722.489 692.053h-420.978v159.858h125.156c11.619 36.76 45.418 62.943 85.333 62.943s73.715-26.183 85.16-62.311l0.173-0.633h125.156zM351.573 740.409h320.284v61.44h-121.173v25.031c0 21.365-17.32 38.684-38.684 38.684s-38.684-17.32-38.684-38.684v0-25.031h-121.742zM749.796 802.987v-49.493h81.92v-724.764h-637.156v724.764h81.92v49.493h-131.413v-822.613h733.867v822.613z" />
<glyph unicode="&#xe912;" glyph-name="Close" d="M175.329 726.91l40.149 40.304 632.365-629.941-40.149-40.304-632.365 629.941zM175.017 137.113l632.914 629.389 40.114-40.339-632.914-629.389-40.114 40.339z" />
<glyph unicode="&#xe913;" glyph-name="Compress" d="M355.556 851.342v-201.387l-245.191 245.191-40.391-40.391 244.053-244.053h-199.111v-56.889h297.529v297.529h-56.889zM114.916 352.427v-56.889h199.111l-244.053-244.053 40.391-40.391 245.191 245.191v-201.387h56.889v297.529h-297.529zM954.027 51.484l-244.053 244.053h199.111v56.889h-297.529v-297.529h56.889v201.387l245.191-245.191 40.391 40.391zM954.027 854.756l-40.391 40.391-245.191-245.191v201.387h-56.889v-297.529h297.529v56.889h-199.111l244.053 244.053z" />
<glyph unicode="&#xe914;" glyph-name="Delete" d="M512-35.556c-133.405 0.27-254.073 54.584-341.316 142.205l-0.017 0.017c-87.842 87.131-142.222 207.882-142.222 341.333s54.38 254.203 142.191 341.302l0.032 0.031c87.632 86.747 208.224 140.341 341.333 140.341s253.701-53.594 341.374-140.381l-0.040 0.040c87.842-87.131 142.222-207.882 142.222-341.333s-54.38-254.203-142.191-341.302l-0.032-0.031c-87.26-87.638-207.928-141.952-341.282-142.222h-0.051zM512 871.253c-0.058 0-0.126 0-0.194 0-117.631 0-224.144-47.603-301.326-124.595l0.009 0.009c-77.107-76.764-124.822-182.997-124.822-300.373s47.715-223.609 124.806-300.358l0.016-0.016c77.408-76.86 184.055-124.362 301.796-124.362s224.387 47.502 301.821 124.386l-0.025-0.025c77.107 76.764 124.822 182.997 124.822 300.373s-47.715 223.609-124.806 300.358l-0.016 0.016c-77.173 76.984-183.687 124.587-301.318 124.587-0.268 0-0.536 0-0.803-0.001h0.041zM347.116 571.667l40.149 40.304 289.783-288.673-40.149-40.304-289.783 288.673zM347.451 323.637l289.935 288.521 40.128-40.325-289.935-288.521-40.128 40.325z" />
<glyph unicode="&#xe915;" glyph-name="Direct_mail" d="M955.733-11.093l-443.733 308.907-443.733-308.907-32.427 46.649 476.16 331.662 476.16-331.662-32.427-46.649zM1000.676-33.849h-976.782v624.071l488.107 340.196 488.107-341.333zM80.782 23.040h863.004v538.738l-431.787 299.236-431.218-299.236zM653.084 207.36l-33.564 46.080 340.764 245.76 32.996-46.080-340.196-245.76zM370.916 207.36l-340.196 245.76 33.564 46.080 340.196-245.76-33.564-46.080zM799.289 327.396h-56.889v259.413h-460.8v-254.293h-57.458v311.182h575.147v-316.302zM362.951 537.884h298.667v-56.889h-298.667v56.889zM362.951 442.311h298.667v-56.889h-298.667v56.889z" />
<glyph unicode="&#xe916;" glyph-name="Donut" d="M796.444 499.769h68.267c-13.295 87.789-57.127 163.5-120.125 217.483l-0.479 0.401-34.702-56.889c44.363-41.705 75.51-97.007 86.775-159.231l0.265-1.765zM512 157.867c-0.455-0.003-0.994-0.004-1.533-0.004-160.236 0-290.133 129.897-290.133 290.133s129.897 290.133 290.133 290.133c39.092 0 76.378-7.731 110.413-21.748l-1.93 0.704 34.702 56.889c-42.431 19.355-92.031 30.637-144.266 30.637-196.054 0-354.987-158.933-354.987-354.987s158.933-354.987 354.987-354.987c69.454 0 134.249 19.946 188.97 54.423l-1.469-0.864-42.098 50.062c-40.829-24.668-89.986-39.576-142.563-40.388l-0.228-0.003zM796.444 396.231c-7.819-51.119-27.996-96.483-57.379-134.346l0.49 0.657 42.098-50.062c43.39 49.867 73.148 112.661 82.844 181.888l0.214 1.863z" />
<glyph unicode="&#xe917;" glyph-name="Download" d="M512 228.978l-238.364 240.64 40.391 40.391 197.973-199.68 197.973 199.68 40.391-40.391-238.364-240.64zM483.556 872.96h56.889v-599.040h-56.889v599.040zM946.062-5.404h-868.124v490.382h56.889v-433.493h754.347v433.493h56.889v-490.382z" />
<glyph unicode="&#xe918;" glyph-name="Edit" d="M130.276 41.813v211.627l563.2 563.2 211.058-211.058-563.2-563.769zM187.164 229.547v-130.844h131.413l506.311 506.311-130.844 130.844zM557.141 638.292l40.227 40.227 170.963-170.963-40.227-40.227-170.963 170.963z" />
<glyph unicode="&#xe919;" glyph-name="Email" d="M945.493 136.818h-866.987v634.88h866.987zM135.396 193.707h753.209v521.102h-753.209zM504.604 310.329l-398.222 398.222 39.822 40.391 358.969-358.969 372.622 359.538 39.822-40.96-413.013-398.222z" />
<glyph unicode="&#xe91a;" glyph-name="Error" d="M996.124 54.329h-963.129l479.004 872.107zM129.138 111.218h770.844l-387.982 697.458zM568.889 253.44c-0.154-29.102-23.782-52.635-52.906-52.635-29.22 0-52.907 23.687-52.907 52.907s23.687 52.907 52.907 52.907c14.677 0 27.959-5.977 37.543-15.629l0.003-0.003c9.487-9.213 15.374-22.088 15.374-36.338 0-0.425-0.005-0.849-0.016-1.271l0.001 0.063zM561.493 346.169h-92.16v244.053h91.022z" />
<glyph unicode="&#xe91b;" glyph-name="Expand" d="M897.138 320.569v-203.662l-346.453 346.453 346.453 345.884v-203.093h56.889v298.667h-299.236v-56.889h200.818l-343.609-343.040-343.609 343.040h200.818v56.889h-299.236v-298.667h56.889v203.093l346.453-345.884-346.453-346.453v203.662h-56.889v-299.236h299.236v56.889h-200.818l343.609 343.609 343.609-343.609h-200.818v-56.889h299.236v299.236h-56.889z" />
<glyph unicode="&#xe91c;" glyph-name="Export" d="M709.973 632.889l-197.973 199.68-197.973-199.68-40.391 39.822 238.364 240.64 238.364-240.64-40.391-39.822zM483.556 868.978h56.889v-599.040h-56.889v599.040zM946.062-5.404h-868.124v490.382h56.889v-433.493h754.347v433.493h56.889v-490.382z" />
<glyph unicode="&#xe91d;" glyph-name="Eye" d="M512 139.662c-289.564 0-455.111 284.444-460.231 294.684l-7.964 13.653 7.964 14.222c5.12 11.947 170.667 291.271 460.231 291.271s455.111-279.893 460.231-291.84l7.964-14.222-7.964-14.222c-5.12-11.378-170.667-293.547-460.231-293.547zM109.796 448c35.84-56.889 180.338-251.449 402.204-251.449s365.796 194.56 402.204 251.449c-36.409 56.889-180.907 248.604-402.204 248.604s-366.364-191.716-402.204-248.604zM512 255.716c-106.196 0-192.284 86.089-192.284 192.284s86.089 192.284 192.284 192.284c106.196 0 192.284-86.089 192.284-192.284v0c0-106.196-86.089-192.284-192.284-192.284v0zM512 582.827c-74.776-0.001-135.394-60.619-135.394-135.396s60.619-135.396 135.396-135.396c74.777 0 135.396 60.619 135.396 135.396 0 0.2 0 0.4-0.001 0.6v-0.031c-0.323 74.532-60.817 134.827-135.394 134.827 0 0-0.001 0-0.001 0v0zM512 391.111c-31.419 0-56.889 25.47-56.889 56.889s25.47 56.889 56.889 56.889c31.419 0 56.889-25.47 56.889-56.889v0c0-31.419-25.47-56.889-56.889-56.889v0zM512 448v0z" />
<glyph unicode="&#xe91e;" glyph-name="Favorite" d="M802.133 8.818l-290.133 179.769-290.133-179.769 82.489 329.956-261.689 223.004 341.333 22.187 128 319.147 128-319.147 341.333-22.187-262.258-221.867zM512 255.147l200.818-124.018-56.889 227.556 181.476 153.6-236.658 15.36-88.747 221.867-88.747-220.729-236.658-15.36 181.476-153.6-56.889-227.556z" />
<glyph unicode="&#xe91f;" glyph-name="File" d="M754.347 329.102h-494.364v56.889h494.364zM754.347 556.658h-494.364v-56.889h496.64zM754.347 210.773h-494.364v-56.889h494.364zM512 732.444h-252.018v-56.889h252.018zM878.933 36.124v643.982h-248.036v188.302h-484.124v-833.422zM935.822-20.764h-845.938v946.631h621.796l223.004-223.004zM822.044 736.996l-133.689 131.413v-131.982z" />
<glyph unicode="&#xe920;" glyph-name="Filecheck" d="M770.276-35.556h-726.471v944.924h726.471v-142.791h-56.889v85.902h-612.693v-831.147h612.693v116.622h56.889v-173.511zM199.111 694.329h307.769v-56.889h-307.769v56.889zM199.111 236.373h307.769v-56.889h-307.769v56.889zM199.111 541.867h244.053v-56.889h-244.053v56.889zM199.111 388.836h244.053v-56.889h-244.053v56.889zM750.933 203.947c-135.101 0-244.622 109.521-244.622 244.622s109.521 244.622 244.622 244.622c135.101 0 244.622-109.521 244.622-244.622 0-0.2 0-0.4-0.001-0.6v0.031c-0.645-134.727-109.85-243.732-244.591-244.053h-0.031zM750.933 636.302c-103.682-0.001-187.732-84.051-187.732-187.733s84.051-187.733 187.733-187.733c103.482 0 187.409 83.727 187.732 187.134v0.031c0.001 0.169 0.001 0.369 0.001 0.569 0 103.682-84.051 187.733-187.733 187.733 0 0-0.001 0-0.001 0v0zM735.573 345.031l-98.418 85.902 36.978 42.667 53.476-46.080 96.142 124.018 44.942-34.702-133.12-171.804z" />
<glyph unicode="&#xe921;" glyph-name="Finger_print" d="M773.12 420.124c-15.25-0.113-29.544-4.105-41.974-11.037l0.445 0.228c-14.214 31.517-45.217 53.131-81.307 53.475h-0.045c-19.22-0.035-36.99-6.213-51.458-16.675l0.258 0.178c-16.286 22.332-42.276 36.741-71.643 36.978h-0.037c-11.941-0.145-23.261-2.641-33.571-7.045l0.575 0.219v56.889c62.153 34.944 103.452 100.467 103.452 175.635 0 110.909-89.909 200.818-200.818 200.818s-200.818-89.909-200.818-200.818c0-77.728 44.16-145.142 108.759-178.521l1.122-0.527v-170.667l-71.68-27.876-43.236-202.524 88.178-147.911 23.893 11.947 24.462 14.791-15.929 26.738-60.871 102.4 33.564 150.187 153.031 59.733v-81.92s0-5.12 0-7.396l-106.951-50.062 23.893-51.2 104.676 48.924c16.183-19.349 40.335-31.568 67.34-31.568 19.381 0 37.292 6.293 51.801 16.948l-0.244-0.171c16.195-22.41 42.255-36.823 71.68-36.823s55.484 14.413 71.502 36.565l0.178 0.258c14.084-10.217 31.713-16.344 50.774-16.344 12.061 0 23.548 2.453 33.992 6.887l-0.57-0.215v-187.733h56.889v335.644c0.001 0.174 0.002 0.379 0.002 0.585 0 49.671-39.786 90.049-89.228 91.005l-0.089 0.001zM437.476 408.178l-74.524-29.013v130.844c11.202-2.405 24.071-3.782 37.262-3.782s26.060 1.377 38.472 3.996l-1.21-0.214zM437.476 570.311c-11.153-3.454-23.975-5.443-37.262-5.443s-26.109 1.989-38.185 5.686l0.923-0.243v105.244c0 20.579 16.683 37.262 37.262 37.262s37.262-16.683 37.262-37.262v0zM398.222 770.56c-51.231-1.583-92.16-43.493-92.16-94.962 0-0.015 0-0.030 0-0.045v0.002-79.076c-32.491 26.597-53.064 66.706-53.064 111.62 0 79.49 64.439 143.929 143.929 143.929s143.929-64.439 143.929-143.929c0-41.857-17.868-79.541-46.392-105.841l-0.099-0.091v73.387c0 0.002 0 0.004 0 0.007 0 52.47-42.535 95.004-95.004 95.004-0.4 0-0.8-0.002-1.198-0.007l0.061 0.001zM558.649 372.338v-105.813c0.003-0.175 0.005-0.381 0.005-0.588 0-18.453-14.643-33.486-32.943-34.113l-0.057-0.002c-1.368-0.216-2.945-0.339-4.551-0.339s-3.183 0.123-4.723 0.361l0.172-0.022c-13.966 4.49-23.896 17.366-23.896 32.562 0 0.152 0.001 0.305 0.003 0.457v-0.023 126.293c0 18.223 14.773 32.996 32.996 32.996s32.996-14.773 32.996-32.996v0zM682.667 328.533v-83.627c0-18.223-14.773-32.996-32.996-32.996s-32.996 14.773-32.996 32.996v126.293c0 18.223 14.773 32.996 32.996 32.996s32.996-14.773 32.996-32.996v0zM805.547 265.956v0c0-18.223-14.773-32.996-32.996-32.996s-32.996 14.773-32.996 32.996v62.578c0 18.223 14.773 32.996 32.996 32.996s32.996-14.773 32.996-32.996v0z" />
<glyph unicode="&#xe922;" glyph-name="Folder" d="M956.871 95.858h-889.742v704.284h384l42.098-113.778h463.644zM124.587 152.747h775.396v477.867h-444.871l-42.098 113.778h-288.996z" />
<glyph unicode="&#xe923;" glyph-name="Group" d="M980.196 10.524h-728.747v241.209c0 38.684 21.049 92.729 122.88 129.707 67.347 22.803 144.917 35.963 225.56 35.963 4.702 0 9.394-0.045 14.074-0.134l-0.701 0.011c182.613 0 366.933-51.2 366.933-165.547zM308.907 67.413h614.4v184.32c0 38.684-56.889 63.716-87.040 75.662-63.208 20.985-135.975 33.090-211.569 33.090-4.021 0-8.033-0.034-12.038-0.102l0.603 0.008c-170.667 0-304.924-47.787-304.924-108.658zM617.813 479.858c-109.966 0-199.111 89.145-199.111 199.111s89.145 199.111 199.111 199.111c109.966 0 199.111-89.145 199.111-199.111v0c0-109.966-89.145-199.111-199.111-199.111v0zM617.813 821.191c-78.547 0-142.222-63.675-142.222-142.222s63.675-142.222 142.222-142.222c78.547 0 142.222 63.675 142.222 142.222v0c-0.323 78.302-63.874 141.653-142.221 141.653 0 0-0.001 0-0.001 0v0zM279.893 10.524h-232.107v241.209c1.514 33.214 17.047 62.522 40.779 82.342l0.181 0.147c81.92 73.956 275.911 93.867 426.098 76.8l-6.827-56.889c-155.307 18.204-323.129-9.102-382.293-61.44-12.325-9.746-20.478-24.3-21.608-40.784l-0.010-0.176v-183.751h175.787zM414.151 479.858c-109.966 0-199.111 89.145-199.111 199.111s89.145 199.111 199.111 199.111v0c0.057 0 0.124 0 0.192 0 44.8 0 86.105-14.967 119.187-40.174l-0.481 0.351-34.133-45.511c-23.473 17.758-53.155 28.444-85.333 28.444-78.547 0-142.222-63.675-142.222-142.222s63.675-142.222 142.222-142.222c32.178 0 61.86 10.686 85.691 28.704l-0.358-0.259 34.133-45.511c-32.601-24.855-73.905-39.822-118.706-39.822-0.067 0-0.135 0-0.202 0h0.010z" />
<glyph unicode="&#xe924;" glyph-name="Heart" d="M512 67.413l-13.653 7.396c-18.204 10.24-448.284 246.898-448.284 495.502 0.324 140.512 114.305 254.293 254.862 254.293 0 0 0.001 0 0.001 0v0c86.162-4.465 160.999-49.251 206.486-115.711l0.589-0.911c45.467 67.245 120.586 111.458 206.161 113.77l0.346 0.007c140.757 0 254.862-114.106 254.862-254.862v0c0-248.036-429.511-485.262-448.284-495.502zM304.924 767.716c0 0-0.001 0-0.001 0-109.138 0-197.649-88.312-197.972-197.374v-0.031c0-192.284 332.8-398.222 405.049-437.476 72.249 41.529 405.049 245.191 405.049 437.476 0 109.338-88.636 197.973-197.973 197.973v0c-77.938 0-124.587-43.804-184.32-124.018l-22.756-32.427-22.756 32.427c-59.164 84.196-117.76 123.449-184.32 123.449z" />
<glyph unicode="&#xe925;" glyph-name="Help" d="M512-35.556c-267.060 0-483.556 216.495-483.556 483.556s216.495 483.556 483.556 483.556c267.060 0 483.556-216.495 483.556-483.556v0c-0.324-266.93-216.625-483.232-483.524-483.556h-0.031zM512 874.667c-235.641 0-426.667-191.025-426.667-426.667s191.025-426.667 426.667-426.667c235.641 0 426.667 191.025 426.667 426.667v0c-0.323 235.511-191.155 426.343-426.635 426.667h-0.032zM552.96 188.587c-10.359-10.289-24.632-16.648-40.391-16.648-31.659 0-57.323 25.664-57.323 57.323 0 15.9 6.474 30.288 16.929 40.672l0.003 0.003c10.338 10.566 24.742 17.116 40.676 17.116s30.338-6.551 40.666-17.106l0.010-0.010c10.566-10.338 17.116-24.742 17.116-40.676s-6.551-30.338-17.106-40.666l-0.010-0.010zM660.48 521.956c-6.144-15.239-13.994-28.389-23.544-40.099l0.219 0.277-49.493-50.062-18.773-16.498c-3.111-3.441-5.772-7.375-7.836-11.651l-0.129-0.296c-1.911-3.968-3.31-8.574-3.956-13.418l-0.026-0.236c-0.261-3.32-0.41-7.189-0.41-11.093s0.149-7.773 0.441-11.602l-0.031 0.509v-42.667h-89.316v56.889c-0.026 1.072-0.041 2.334-0.041 3.6 0 10.6 1.050 20.955 3.053 30.967l-0.167-1.002c2.166 9.673 5.499 18.221 9.918 26.077l-0.247-0.477c4.851 8.473 10.513 15.766 17.050 22.17l0.017 0.017 23.324 22.187 21.618 19.342c6.621 6.339 12.763 13.021 18.459 20.078l0.314 0.402c4.938 6.267 9.308 13.371 12.811 20.958l0.273 0.659c2.883 6.582 4.56 14.254 4.56 22.317 0 0.354-0.003 0.708-0.010 1.061l0.001-0.053c0.002 0.184 0.003 0.401 0.003 0.619 0 16.64-6.74 31.707-17.639 42.617l0.001-0.001c-5.224 5.247-11.463 9.478-18.398 12.376l-0.376 0.139c-6.866 2.881-14.845 4.555-23.215 4.555-0.238 0-0.476-0.001-0.714-0.004h0.036c-0.845 0.042-1.835 0.066-2.831 0.066-16.672 0-31.764-6.766-42.679-17.701l-0.001-0.001c-12.708-13.387-20.787-31.277-21.613-51.041l-0.005-0.159v-11.947l-96.142 11.947v13.084c5.43 40.779 25.871 75.981 55.489 100.482l0.262 0.211c28.108 22.727 64.285 36.484 103.675 36.484 1.752 0 3.498-0.027 5.237-0.081l-0.254 0.006c0.257 0.001 0.561 0.002 0.865 0.002 20.043 0 39.307-3.333 57.269-9.474l-1.245 0.37c19.075-6.126 35.567-15.454 49.697-27.475l-0.203 0.169c13.649-11.897 24.61-26.503 32.106-43.015l0.321-0.789c7.511-16.751 11.904-36.301 11.947-56.873v-0.016c0.009-0.585 0.014-1.275 0.014-1.966 0-18.339-3.556-35.847-10.017-51.873l0.332 0.933z" />
<glyph unicode="&#xe926;" glyph-name="Help_solid" d="M512 931.556c-267.060 0-483.556-216.495-483.556-483.556s216.495-483.556 483.556-483.556c267.060 0 483.556 216.495 483.556 483.556v0c-0.324 266.93-216.625 483.232-483.524 483.556h-0.031zM552.96 188.587c-10.359-10.289-24.632-16.648-40.391-16.648-31.659 0-57.323 25.664-57.323 57.323 0 15.9 6.474 30.288 16.929 40.672l0.003 0.003c10.338 10.566 24.742 17.116 40.676 17.116s30.338-6.551 40.666-17.106l0.010-0.010c10.566-10.338 17.116-24.742 17.116-40.676s-6.551-30.338-17.106-40.666l-0.010-0.010zM661.049 521.956c-6.144-15.239-13.994-28.389-23.544-40.099l0.219 0.277-49.493-50.062-19.342-16.498c-3.111-3.441-5.772-7.375-7.836-11.651l-0.129-0.296c-1.911-3.968-3.31-8.574-3.956-13.418l-0.026-0.236c-0.261-3.32-0.41-7.189-0.41-11.093s0.149-7.773 0.441-11.602l-0.031 0.509v-42.667h-89.316v56.889c-0.026 1.072-0.041 2.334-0.041 3.6 0 10.6 1.050 20.955 3.053 30.967l-0.167-1.002c2.166 9.673 5.499 18.221 9.918 26.077l-0.247-0.477c4.851 8.473 10.513 15.766 17.050 22.17l0.017 0.017 23.324 22.187 21.618 19.342c6.621 6.339 12.763 13.021 18.459 20.078l0.314 0.402c4.938 6.267 9.308 13.371 12.811 20.958l0.273 0.659c2.883 6.582 4.56 14.254 4.56 22.317 0 0.354-0.003 0.708-0.010 1.061l0.001-0.053c0.002 0.184 0.003 0.401 0.003 0.619 0 16.64-6.74 31.707-17.639 42.617l0.001-0.001c-5.224 5.247-11.463 9.478-18.398 12.376l-0.376 0.139c-6.866 2.881-14.845 4.555-23.215 4.555-0.238 0-0.476-0.001-0.714-0.004h0.036c-0.845 0.042-1.835 0.066-2.831 0.066-16.672 0-31.764-6.766-42.679-17.701l-0.001-0.001c-12.708-13.387-20.787-31.277-21.613-51.041l-0.005-0.159v-11.947l-96.142 11.947v13.084c5.43 40.779 25.871 75.981 55.489 100.482l0.262 0.211c28.108 22.727 64.285 36.484 103.675 36.484 1.752 0 3.498-0.027 5.237-0.081l-0.254 0.006c0.257 0.001 0.561 0.002 0.865 0.002 20.043 0 39.307-3.333 57.269-9.474l-1.245 0.37c19.075-6.126 35.567-15.454 49.697-27.475l-0.203 0.169c13.649-11.897 24.61-26.503 32.106-43.015l0.321-0.789c7.511-16.751 11.904-36.301 11.947-56.873v-0.016c0.009-0.585 0.014-1.275 0.014-1.966 0-18.339-3.556-35.847-10.017-51.873l0.332 0.933z" />
<glyph unicode="&#xe927;" glyph-name="Home" d="M861.298-7.111h-698.027v493.796h-106.382l455.111 363.52 455.111-363.52h-105.813zM220.16 49.778h584.249v493.227l-292.409 234.382-291.84-234.382zM607.004 21.333h-56.889v288.427h-76.231v-288.427h-56.889v345.316h190.009v-345.316z" />
<glyph unicode="&#xe928;" glyph-name="Information" d="M455.111 636.302c0.514 31.023 25.784 55.975 56.882 55.975 31.419 0 56.889-25.47 56.889-56.889s-25.47-56.889-56.889-56.889c-15.228 0-29.058 5.983-39.268 15.726l0.022-0.021c-10.879 10.381-17.643 24.992-17.643 41.184 0 0.321 0.003 0.642 0.008 0.962l-0.001-0.048zM460.8 531.627h102.4v-331.093h-102.4zM512-35.556c-267.060 0-483.556 216.495-483.556 483.556s216.495 483.556 483.556 483.556c267.060 0 483.556-216.495 483.556-483.556v0c-0.324-266.93-216.625-483.232-483.524-483.556h-0.031zM512 874.667c-235.641 0-426.667-191.025-426.667-426.667s191.025-426.667 426.667-426.667c235.641 0 426.667 191.025 426.667 426.667v0c-0.323 235.511-191.155 426.343-426.635 426.667h-0.032z" />
<glyph unicode="&#xe929;" glyph-name="Information_solid" d="M512 931.556c-267.060 0-483.556-216.495-483.556-483.556s216.495-483.556 483.556-483.556c267.060 0 483.556 216.495 483.556 483.556v0c-0.324 266.93-216.625 483.232-483.524 483.556h-0.031zM563.2 200.533h-102.4v331.093h102.4zM554.098 594.204c-10.659-11.021-25.579-17.863-42.098-17.863-32.33 0-58.538 26.208-58.538 58.538 0 15.811 6.269 30.158 16.456 40.692l-0.016-0.016c10.659 11.021 25.579 17.863 42.098 17.863 32.33 0 58.538-26.208 58.538-58.538 0-15.811-6.269-30.158-16.456-40.692l0.016 0.016z" />
<glyph unicode="&#xe92a;" glyph-name="Insecure" d="M566.044 495.218h-212.196v96.142c0 37.86-30.691 68.551-68.551 68.551s-68.551-30.691-68.551-68.551v0-96.142h-211.627v113.778c1.37 153.223 125.898 276.905 279.314 276.905 75.403 0 143.828-29.877 194.081-78.44l-0.080 0.077c52.724-50.574 85.98-121.090 87.604-199.381l0.005-0.299zM411.307 552.107h97.849v56.889c-2.037 62.137-28.683 117.678-70.451 157.496l-0.091 0.086c-38.213 38.309-91.055 62.010-149.433 62.010-0.265 0-0.53 0-0.795-0.001h0.041c-1.526 0.038-3.324 0.059-5.126 0.059-122.268 0-221.496-98.651-222.429-220.699l-0.001-0.089v-56.889h99.556v40.391c0 69.279 56.161 125.44 125.44 125.44s125.44-56.161 125.44-125.44v0zM650.24 227.271c-51.527 0-93.298 41.771-93.298 93.298s41.771 93.298 93.298 93.298c51.527 0 93.298-41.771 93.298-93.298v0c0-51.527-41.771-93.298-93.298-93.298v0zM650.24 356.409c-20.108 0-36.409-16.301-36.409-36.409s16.301-36.409 36.409-36.409c20.108 0 36.409 16.301 36.409 36.409v0c0 20.108-16.301 36.409-36.409 36.409v0zM621.796 255.716h56.889v-92.729h-56.889v92.729zM1018.88 10.524h-739.556v541.582h739.556zM336.213 67.413h625.778v427.804h-625.778z" />
<glyph unicode="&#xe92b;" glyph-name="Instructions" d="M770.276-35.556h-726.471v944.924h726.471v-142.791h-56.889v85.902h-612.693v-831.147h612.693v116.622h56.889v-173.511zM328.249 694.329h178.631v-56.889h-178.631v56.889zM328.249 236.373h178.631v-56.889h-178.631v56.889zM328.249 541.867h114.916v-56.889h-114.916v56.889zM328.249 388.836h114.916v-56.889h-114.916v56.889zM750.933 203.947c-135.101 0-244.622 109.521-244.622 244.622s109.521 244.622 244.622 244.622c135.101 0 244.622-109.521 244.622-244.622 0-0.2 0-0.4-0.001-0.6v0.031c-0.645-134.727-109.85-243.732-244.591-244.053h-0.031zM750.933 636.302c-103.682-0.001-187.732-84.051-187.732-187.733s84.051-187.733 187.733-187.733c103.482 0 187.409 83.727 187.732 187.134v0.031c0.001 0.169 0.001 0.369 0.001 0.569 0 103.682-84.051 187.733-187.733 187.733 0 0-0.001 0-0.001 0v0zM275.911 360.391c0-22.307-18.084-40.391-40.391-40.391s-40.391 18.084-40.391 40.391c0 22.307 18.084 40.391 40.391 40.391s40.391-18.084 40.391-40.391zM275.911 207.929c0-22.307-18.084-40.391-40.391-40.391s-40.391 18.084-40.391 40.391c0 22.307 18.084 40.391 40.391 40.391s40.391-18.084 40.391-40.391zM275.911 513.422c0-22.307-18.084-40.391-40.391-40.391s-40.391 18.084-40.391 40.391c0 22.307 18.084 40.391 40.391 40.391s40.391-18.084 40.391-40.391zM275.911 665.884c0-22.307-18.084-40.391-40.391-40.391s-40.391 18.084-40.391 40.391c0 22.307 18.084 40.391 40.391 40.391s40.391-18.084 40.391-40.391zM720.213 545.849c0 0.062-0.001 0.136-0.001 0.209 0 16.966 13.754 30.72 30.72 30.72s30.72-13.754 30.72-30.72c0-16.966-13.754-30.72-30.72-30.72-8.431 0-16.069 3.396-21.619 8.895l0.002-0.002c-5.615 5.393-9.103 12.963-9.103 21.348 0 0.095 0 0.19 0.001 0.285v-0.015zM724.196 488.96h52.907v-170.667h-52.907z" />
<glyph unicode="&#xe92c;" glyph-name="Ledger" d="M403.911 715.378h365.227v-56.889h-365.227v56.889zM403.911 237.511h365.227v-56.889h-365.227v56.889zM403.911 556.089h365.227v-56.889h-365.227v56.889zM403.911 396.8h365.227v-56.889h-365.227v56.889zM957.44-2.56h-801.564v901.12h801.564zM212.764 54.329h687.787v787.342h-687.787zM95.004 773.404h178.631v-56.889h-178.631v56.889zM95.004 476.444h178.631v-56.889h-178.631v56.889zM95.004 179.484h178.631v-56.889h-178.631v56.889z" />
<glyph unicode="&#xe92d;" glyph-name="Link_web" d="M512-35.556c-266.884 0.234-483.146 216.639-483.146 483.555 0 267.060 216.495 483.556 483.556 483.556 196.222 0 365.146-116.876 440.955-284.81l1.231-3.047c25.881-57.027 40.964-123.661 40.964-193.818 0-0.661-0.001-1.321-0.004-1.981v0.102c-0.324-266.93-216.625-483.232-483.524-483.556h-0.031zM512 874.667c-235.641 0-426.667-191.025-426.667-426.667s191.025-426.667 426.667-426.667c235.641 0 426.667 191.025 426.667 426.667v0c-0.144 61.818-13.537 120.472-37.486 173.323l1.077-2.656c-67.541 151.622-216.707 255.513-390.194 256h-0.063zM512 591.929c-4.531-0.060-9.881-0.094-15.24-0.094-132.693 0-260.519 20.84-380.383 59.424l8.779-2.442 18.204 54.044c105.621-34.343 227.158-54.144 353.319-54.144 5.387 0 10.765 0.036 16.135 0.108l-0.814-0.009c5.334-0.087 11.629-0.136 17.935-0.136 124.981 0 245.432 19.395 358.507 55.339l-8.371-2.297 18.204-54.044c-110.065-35.449-236.691-55.884-368.090-55.884-6.394 0-12.777 0.048-19.148 0.145l0.963-0.011zM145.067 178.916l-18.204 54.044c111.085 36.143 238.911 56.983 371.605 56.983 5.358 0 10.709-0.034 16.051-0.102l-0.811 0.008c4.467 0.058 9.744 0.091 15.028 0.091 132.569 0 260.271-20.839 380.009-59.42l-8.761 2.439-18.204-54.044c-105.132 34.009-226.091 53.615-351.63 53.615-6.381 0-12.75-0.051-19.107-0.152l0.959 0.012c-4.587 0.064-10.003 0.101-15.427 0.101-125.493 0-246.411-19.592-359.86-55.884l8.354 2.308zM625.778-11.093l-51.2 25.031c50.321 118.785 79.567 256.919 79.567 401.883 0 11.315-0.178 22.589-0.532 33.819l0.041-1.64c0.267 8.852 0.419 19.267 0.419 29.716 0 145.906-29.643 284.888-83.234 411.253l2.602-6.907 52.338 25.031c53.95-125.197 85.326-270.946 85.326-424.023 0-12.333-0.204-24.618-0.608-36.853l0.047 1.782c0.357-10.452 0.561-22.737 0.561-35.070 0-153.077-31.375-298.826-88.046-431.167l2.72 7.144zM398.222-19.627c-53.957 125.096-85.337 270.736-85.337 423.706 0 12.444 0.208 24.839 0.62 37.183l-0.048-1.796c-0.365 10.548-0.572 22.943-0.572 35.387 0 152.97 31.38 298.61 88.054 430.836l-2.718-7.13 51.2-25.031c-50.323-118.752-79.57-256.85-79.57-401.779 0-11.353 0.179-22.664 0.536-33.93l-0.041 1.646c-0.265-8.821-0.416-19.198-0.416-29.611 0-145.941 29.641-284.959 83.231-411.362l-2.602 6.91zM66.56 469.049h893.724v-56.889h-893.724v56.889z" />
<glyph unicode="&#xe92e;" glyph-name="Loan" d="M765.724 796.16v32.427h67.698v56.889h-192.284v-56.889h67.698v-31.858c-54.549-6.338-102.733-29.644-140.096-64.422l0.149 0.138-81.92 64.284-430.080-343.040h102.969v-460.8h654.222v323.698c100.277 32.707 171.46 125.378 171.46 234.675 0 126.704-95.662 231.064-218.7 244.797l-1.116 0.101zM519.964 49.778h-64.853v238.364h64.853zM757.191 49.778h-180.338v295.253h-178.631v-295.253h-181.476v455.111l270.222 219.022 44.373-35.271c-26.207-38.663-41.839-86.348-41.839-137.685 0-136.672 110.795-247.467 247.467-247.467 0.909 0 1.817 0.005 2.724 0.015l-0.138-0.001c6.827 0 13.084 0 19.911 0zM904.533 461.084l-4.551-7.964c-20.413-33.791-49.978-60.244-85.27-76.31l-1.201-0.49c-16.639-7.247-35.93-12.294-56.142-14.166l-0.747-0.056c-2.974-0.169-6.454-0.266-9.956-0.266s-6.981 0.096-10.436 0.287l0.48-0.021c-104.726 0.317-189.614 84.806-190.577 189.348l-0.001 0.092c0.080 37.591 11.096 72.593 30.034 102.012l-0.452-0.75c34.148 54.623 93.962 90.42 162.137 90.42 105.253 0 190.578-85.325 190.578-190.578 0-0.388-0.001-0.776-0.003-1.164v0.059c-0.085-33.193-8.719-64.351-23.816-91.412l0.491 0.959zM641.138 476.444v0 0 0zM740.693 680.676h-28.444v-114.916l-14.791-11.378-29.013-21.618-44.373-33.564 34.133-45.511 110.933 83.627v143.36h-28.444z" />
<glyph unicode="&#xe92f;" glyph-name="Locations" d="M512-21.333l-22.756 29.013c-12.516 15.929-302.649 394.809-302.649 568.889 0 179.559 145.561 325.12 325.12 325.12s325.12-145.561 325.12-325.12v0c0-170.667-290.133-550.116-302.649-568.889zM512 842.24c-147.853-0.323-267.624-120.094-267.947-267.916v-0.031c0-113.778 176.356-377.742 267.947-501.76 91.591 123.449 267.947 385.707 267.947 501.76-0.323 147.853-120.094 267.624-267.916 267.947h-0.031zM512 415.573c-78.233 0-141.653 63.42-141.653 141.653s63.42 141.653 141.653 141.653c78.233 0 141.653-63.42 141.653-141.653v0c0-78.233-63.42-141.653-141.653-141.653v0zM512 643.129c-46.814 0-84.764-37.95-84.764-84.764s37.95-84.764 84.764-84.764c46.814 0 84.764 37.95 84.764 84.764v0c-0.957 46.074-38.533 83.058-84.747 83.058-0.006 0-0.012 0-0.018 0h0.001z" />
<glyph unicode="&#xe930;" glyph-name="Max" d="M512-35.556c-0.678-0.003-1.479-0.005-2.281-0.005-265.804 0-481.28 215.476-481.28 481.28 0 0.802 0.002 1.604 0.006 2.405v-0.124c1.603 266.413 217.142 481.952 483.402 483.555l0.153 0.001c133.394-0.337 254.041-54.635 341.32-142.209l0.013-0.013c87.828-86.782 142.223-207.231 142.223-340.385 0-0.334 0-0.667-0.001-1v0.052c-1.603-266.413-217.142-481.952-483.402-483.555l-0.153-0.001zM512 874.667c-234.995-1.601-425.066-191.672-426.666-426.514l-0.001-0.153c-0.004-0.678-0.006-1.48-0.006-2.282 0-234.385 190.006-424.391 424.391-424.391 0.802 0 1.604 0.002 2.406 0.007l-0.124-0.001c234.995 1.601 425.066 191.672 426.666 426.514l0.001 0.153c0.004 0.678 0.006 1.48 0.006 2.282 0 234.385-190.006 424.391-424.391 424.391-0.802 0-1.604-0.002-2.406-0.007l0.124 0.001zM306.987 477.604l409.599 0.786 0.109-56.889-409.599-0.786-0.109 56.889zM483.576 245.119l0.786 409.599 56.889-0.109-0.786-409.599-56.889 0.109z" />
<glyph unicode="&#xe931;" glyph-name="Menu" d="M60.302 816.64h903.964v-56.889h-903.964v56.889zM60.302 476.444h903.964v-56.889h-903.964v56.889zM60.302 136.249h903.964v-56.889h-903.964v56.889z" />
<glyph unicode="&#xe932;" glyph-name="Menu_drop" d="M512-35.556c-0.678-0.003-1.479-0.005-2.281-0.005-265.804 0-481.28 215.476-481.28 481.28 0 0.802 0.002 1.604 0.006 2.405v-0.124c1.603 266.413 217.142 481.952 483.402 483.555l0.153 0.001c0.678 0.003 1.479 0.005 2.281 0.005 265.804 0 481.28-215.476 481.28-481.28 0-0.802-0.002-1.604-0.006-2.405v0.124c-1.603-266.413-217.142-481.952-483.402-483.555l-0.153-0.001zM512 874.667c-234.995-1.601-425.066-191.672-426.666-426.514l-0.001-0.153c-0.004-0.678-0.006-1.48-0.006-2.282 0-234.385 190.006-424.391 424.391-424.391 0.802 0 1.604 0.002 2.406 0.007l-0.124-0.001c234.995 1.601 425.066 191.672 426.666 426.514l0.001 0.153c0.004 0.678 0.006 1.48 0.006 2.282 0 234.385-190.006 424.391-424.391 424.391-0.802 0-1.604-0.002-2.406-0.007l0.124 0.001zM512 300.658l-234.382 234.382 39.822 40.391 194.56-194.56 194.56 194.56 40.391-40.391-234.951-234.382z" />
<glyph unicode="&#xe933;" glyph-name="Menu_list" d="M299.236 785.92h642.844v-56.889h-642.844v56.889zM213.902 757.476c0-36.446-29.545-65.991-65.991-65.991s-65.991 29.545-65.991 65.991c0 36.446 29.545 65.991 65.991 65.991s65.991-29.545 65.991-65.991zM299.236 476.444h642.844v-56.889h-642.844v56.889zM213.902 448c0-36.446-29.545-65.991-65.991-65.991s-65.991 29.545-65.991 65.991c0 36.446 29.545 65.991 65.991 65.991s65.991-29.545 65.991-65.991zM299.236 166.969h642.844v-56.889h-642.844v56.889zM213.902 138.524c0-36.446-29.545-65.991-65.991-65.991s-65.991 29.545-65.991 65.991c0 36.446 29.545 65.991 65.991 65.991s65.991-29.545 65.991-65.991z" />
<glyph unicode="&#xe934;" glyph-name="Min" d="M512-35.556c-0.678-0.003-1.479-0.005-2.281-0.005-265.804 0-481.28 215.476-481.28 481.28 0 0.802 0.002 1.604 0.006 2.405v-0.124c1.603 266.413 217.142 481.952 483.402 483.555l0.153 0.001c0.678 0.003 1.479 0.005 2.281 0.005 265.804 0 481.28-215.476 481.28-481.28 0-0.802-0.002-1.604-0.006-2.405v0.124c-1.603-266.413-217.142-481.952-483.402-483.555l-0.153-0.001zM512 874.667c-234.995-1.601-425.066-191.672-426.666-426.514l-0.001-0.153c-0.004-0.678-0.006-1.48-0.006-2.282 0-234.385 190.006-424.391 424.391-424.391 0.802 0 1.604 0.002 2.406 0.007l-0.124-0.001c234.995 1.601 425.066 191.672 426.666 426.514l0.001 0.153c0.004 0.678 0.006 1.48 0.006 2.282 0 234.385-190.006 424.391-424.391 424.391-0.802 0-1.604-0.002-2.406-0.007l0.124 0.001zM306.987 477.604l409.599 0.786 0.109-56.889-409.599-0.786-0.109 56.889z" />
<glyph unicode="&#xe935;" glyph-name="Notification" d="M935.822 122.027h-849.351l94.436 269.084 38.116 303.218c19.342 142.791 169.529 208.782 300.942 208.782v0c133.689 0 277.049-65.991 295.253-210.489l38.116-307.2zM166.684 178.916h692.338l-56.889 194.56-39.822 311.182c-16.498 110.933-132.551 161.564-241.209 161.564v0c-107.52 0-227.556-50.062-244.622-160.996l-39.822-312.32zM512-7.111c-73.206 0-132.551 59.345-132.551 132.551v0h56.889c-0.181-1.964-0.284-4.247-0.284-6.555 0-41.787 33.875-75.662 75.662-75.662s75.662 33.875 75.662 75.662c0 2.307-0.103 4.591-0.306 6.846l0.021-0.291h56.889c0 0 0-0.001 0-0.001 0-73.006-59.021-132.227-131.951-132.55h-0.031z" />
<glyph unicode="&#xe936;" glyph-name="Notification_panel" d="M659.911 159.573h-617.244l71.111 197.404 26.738 211.058c13.084 107.52 121.742 154.738 217.316 154.738s202.524-47.787 216.178-154.738l26.738-214.471zM122.88 216.462h460.231l-38.116 125.156-27.876 220.16c-9.102 71.68-87.040 104.107-159.289 104.107s-152.462-32.996-162.702-104.107l-28.444-219.591zM351.573 69.689c-55.926 0-101.262 45.337-101.262 101.262v0h56.889c-0.181-1.505-0.284-3.249-0.284-5.016 0-24.507 19.867-44.373 44.373-44.373s44.373 19.867 44.373 44.373c0 1.767-0.103 3.511-0.304 5.224l0.020-0.208h59.733c0-0.008 0-0.017 0-0.026 0-55.926-45.337-101.262-101.262-101.262-0.8 0-1.598 0.009-2.394 0.028l0.118-0.002zM564.907 694.898c10.125-10.446 18.989-22.209 26.287-34.983l0.451-0.857c5.168-9.638 10.53-21.45 15.181-33.613l0.748-2.227h369.209v71.68zM620.658 487.822l11.947-72.249h344.178v72.249h-356.124zM658.204 276.764l19.342-71.68h299.236v71.68h-318.578z" />
<glyph unicode="&#xe937;" glyph-name="Offers" d="M591.644-14.507l-530.204 530.773v382.293h382.293l530.204-530.204zM118.329 539.591l473.316-473.316 302.080 302.080-473.316 473.316h-302.080zM420.978 570.88c12.919 11.846 27.485 22.239 43.23 30.726l1.143 0.563c15.29 8.534 33.218 14.396 52.288 16.444l0.619 0.054q0-34.133 3.982-66.56c-11.548-0.113-22.483-2.614-32.374-7.033l0.516 0.206c-10.334-4.249-19.197-10.008-26.786-17.112l0.049 0.045 51.769-51.769 34.133 17.067c10.716 5.219 23.15 9.19 36.212 11.277l0.766 0.101c5.559 1.134 11.948 1.784 18.489 1.784s12.93-0.649 19.107-1.887l-0.618 0.103c14.18-4.379 26.262-12.050 35.803-22.148l0.037-0.039c10.54-11.070 18.577-24.623 23.141-39.686l0.184-0.705c3.459-9.175 5.462-19.781 5.462-30.855 0-2.756-0.124-5.484-0.367-8.177l0.025 0.347c-1.308-13.903-5.157-26.639-11.082-38.13l0.273 0.583c-6.253-12.432-13.845-23.112-22.802-32.476l0.047 0.049 23.893-23.893-23.893-23.893-23.893 23.893c-14.371-13.625-30.864-25.211-48.892-34.175l-1.171-0.527c-16.538-8.53-35.87-14.226-56.343-15.893l-0.546-0.036q0 17.067 0 34.702c0 11.947 0 23.324 0 34.702 2.818-0.367 6.078-0.576 9.387-0.576s6.568 0.209 9.767 0.615l-0.38-0.039c6.26 1.736 11.553 3.675 16.645 5.979l-0.716-0.29c6.637 2.252 12.275 4.752 17.643 7.684l-0.576-0.288c5.237 2.845 9.732 6.252 13.646 10.232l0.008 0.008-56.889 56.889c-11.947-6.827-23.893-12.516-35.271-18.204-10.281-4.828-22.214-8.247-34.762-9.626l-0.509-0.045c-2.765-0.336-5.966-0.527-9.212-0.527-8.908 0-17.478 1.442-25.492 4.105l0.57-0.164c-13.033 4.671-24.098 12.074-32.95 21.569l-0.045 0.049c-9.676 9.392-17.106 21.042-21.445 34.104l-0.172 0.599c-2.826 8.566-4.456 18.426-4.456 28.667 0 3.328 0.172 6.615 0.508 9.854l-0.034-0.405c1.387 13.477 5.018 25.808 10.525 37.053l-0.285-0.644c5.132 12.2 11.632 22.715 19.494 32.043l-0.152-0.185-22.756 22.187 22.756 23.324zM439.182 504.889c-4.878-6.109-8.155-13.695-9.084-21.99l-0.018-0.196c-0.040-0.568-0.063-1.231-0.063-1.899 0-8.53 3.755-16.184 9.702-21.397l0.033-0.028c5.017-6.652 12.773-11.007 21.56-11.376l0.057-0.002c9.195 0.836 17.534 3.905 24.655 8.655l-0.193-0.121zM609.849 375.751c6.677 6.061 10.853 14.774 10.853 24.462s-4.176 18.401-10.825 24.438l-0.027 0.024c-5.553 6.297-13.639 10.248-22.648 10.248-0.238 0-0.475-0.003-0.711-0.008l0.035 0.001c-9.721-0.92-18.604-3.761-26.516-8.141l0.348 0.176zM272.873 758.575c19.773-19.773 19.773-51.831 0-71.603s-51.831-19.773-71.603 0c-19.773 19.773-19.773 51.831 0 71.603s51.831 19.773 71.603 0z" />
<glyph unicode="&#xe938;" glyph-name="Person" d="M876.089 14.507h-728.178v240.64c0 38.684 21.049 92.729 122.88 129.707 67.359 22.831 144.944 36.008 225.606 36.008 5.486 0 10.959-0.061 16.416-0.182l-0.813 0.014c182.613 0 366.933-51.2 366.933-165.547zM204.8 71.396h614.4v183.751c0 38.684-56.889 63.716-87.040 75.662-63.225 20.958-136.009 33.048-211.617 33.048-3.004 0-6.003-0.019-8.998-0.057l0.455 0.005c-170.667 0-304.924-47.787-304.924-108.658zM512 483.84c-109.966 0-199.111 89.145-199.111 199.111s89.145 199.111 199.111 199.111c109.966 0 199.111-89.145 199.111-199.111v0c0-109.966-89.145-199.111-199.111-199.111v0zM512 825.173c-78.547 0-142.222-63.675-142.222-142.222s63.675-142.222 142.222-142.222c78.547 0 142.222 63.675 142.222 142.222v0c-0.323 78.302-63.874 141.653-142.221 141.653 0 0-0.001 0-0.001 0v0z" />
<glyph unicode="&#xe939;" glyph-name="Phone" d="M804.409-44.089h-584.818v984.178h584.818zM276.48 12.8h471.040v870.4h-471.040zM402.773 828.587h217.884v-56.889h-217.884v56.889zM512 38.969c-43.358 0-78.507 35.149-78.507 78.507s35.149 78.507 78.507 78.507c43.358 0 78.507-35.149 78.507-78.507v0c0-43.358-35.149-78.507-78.507-78.507v0zM512 139.093c-11.939 0-21.618-9.679-21.618-21.618s9.679-21.618 21.618-21.618c11.939 0 21.618 9.679 21.618 21.618v0c0.005 0.169 0.007 0.369 0.007 0.569 0 11.939-9.679 21.618-21.618 21.618-0.003 0-0.005 0-0.008 0v0z" />
<glyph unicode="&#xe93a;" glyph-name="Pin" d="M137.35 113.145l259.241 262.886 40.506-39.945-259.241-262.886-40.506 39.945zM580.836 148.196l-368.64 369.209 19.911 19.911c34.669 32.437 81.401 52.357 132.785 52.357 21.681 0 42.534-3.546 62.010-10.091l-1.373 0.4 110.364 110.364 40.391 170.667 346.453-346.453-170.667-40.391-110.364-109.796c6.193-18.143 9.767-39.044 9.767-60.779 0-51.353-19.953-98.045-52.53-132.746l0.096 0.104zM296.391 514.56l284.444-284.444c11.086 20.565 17.601 45.008 17.601 70.973 0 20.77-4.169 40.567-11.715 58.598l0.372-1.002-6.258 17.067 146.773 146.773 85.333 20.48-205.369 203.662-20.48-85.333-146.204-146.773-17.067 6.258c-17.029 7.174-36.826 11.343-57.596 11.343-25.965 0-50.408-6.515-71.784-17.999l0.811 0.398z" />
<glyph unicode="&#xe93b;" glyph-name="Popout" d="M868.693 804.693h-299.236v-56.889h242.347v-242.347h56.889v299.236zM417.786 395.553l376.52 376.52 40.227-40.227-376.52-376.52-40.227 40.227zM811.804 390.542h-56.889v-242.347h-542.72v542.72h242.347v56.889h-299.236v-656.498h656.498v299.236z" />
<glyph unicode="&#xe93c;" glyph-name="Posak" d="M480.711 290.987l-160.996 139.947 37.547 42.667 115.484-100.693 190.578 245.76 44.942-35.271-227.556-292.409zM512-35.556c-267.060 0-483.556 216.495-483.556 483.556s216.495 483.556 483.556 483.556c267.060 0 483.556-216.495 483.556-483.556v0c-0.324-266.93-216.625-483.232-483.524-483.556h-0.031zM512 874.667c-235.641 0-426.667-191.025-426.667-426.667s191.025-426.667 426.667-426.667c235.641 0 426.667 191.025 426.667 426.667v0c-0.323 235.511-191.155 426.343-426.635 426.667h-0.032z" />
<glyph unicode="&#xe93d;" glyph-name="Print" d="M348.729 298.382h326.542v-56.889h-326.542v56.889zM353.28 199.964h201.956v-56.889h-201.956v56.889zM975.076 241.493h-215.609v56.889h158.72v362.951h-812.373v-362.951h118.898v-56.889h-175.787v476.729h926.151v-476.729zM810.667-28.16h-597.333v464.782h597.333zM270.791 28.729h482.987v351.004h-483.556zM810.667 689.778h-56.889v177.493h-483.556v-164.409h-56.889v221.298h597.333v-234.382z" />
<glyph unicode="&#xe93e;" glyph-name="Recurring" d="M439.751-20.196l-39.822 40.391 174.649 174.649-174.649 175.218 39.822 40.391 215.609-215.609-215.609-215.040zM581.404 166.4h-97.28c-230.056 0.324-416.427 186.895-416.427 416.995 0 0 0 0.001 0 0.001v0h56.889c0.323-198.437 161.1-359.214 359.506-359.538h97.311zM584.249 507.733l-215.609 215.040 215.609 215.040 39.822-39.822-174.649-175.218 174.649-175.218-39.822-39.822zM953.458 334.222h-56.889c0 0 0 0 0 0 0 198.681-160.901 359.782-359.507 360.106h-97.311v56.889h97.28c230.056-0.324 416.427-186.895 416.427-416.995 0 0 0-0.001 0-0.001v0z" />
<glyph unicode="&#xe93f;" glyph-name="Refresh" d="M247.467 184.604l-229.262 229.262 40.391 40.391 188.871-188.871 188.302 188.871 40.391-40.391-228.693-229.262zM597.902 54.898v56.889c177.831 0 321.991 144.16 321.991 321.991s-144.16 321.991-321.991 321.991c-177.831 0-321.991-144.16-321.991-321.991v0-176.356h-56.889v176.356c0 209.25 169.63 378.88 378.88 378.88s378.88-169.63 378.88-378.88c0-209.25-169.63-378.88-378.88-378.88v0z" />
<glyph unicode="&#xe940;" glyph-name="Reports" d="M638.862-24.178h-253.724v944.356h253.724zM442.027 32.711h139.947v830.578h-139.947zM284.444-24.178h-256v585.956h256zM87.609 32.711h139.947v472.178h-142.222zM995.556-24.178h-256v374.898h256zM796.444 32.711h142.222v261.12h-142.222z" />
<glyph unicode="&#xe941;" glyph-name="Scan" d="M168.96 669.298h56.889v-453.404h-56.889v453.404zM472.747 669.298h56.889v-453.404h-56.889v453.404zM251.449 669.298h56.889v-453.404h-56.889v453.404zM366.364 669.298h56.889v-453.404h-56.889v453.404zM814.080 669.298h56.889v-453.404h-56.889v453.404zM548.978 669.298h56.889v-453.404h-56.889v453.404zM641.138 669.298h56.889v-453.404h-56.889v453.404zM717.369 669.298h56.889v-453.404h-56.889v453.404zM976.782 90.169h-242.347v56.889h185.458v184.889h56.889v-241.778zM63.147 90.169h242.347v56.889h-185.458l0.569 184.889h-57.458v-241.778zM976.782 805.831h-242.347v-56.889h185.458v-184.889h56.889v241.778zM63.147 805.831h242.347v-56.889h-185.458l0.569-184.889h-57.458v241.778z" />
<glyph unicode="&#xe942;" glyph-name="Search" d="M418.702 220.444c-0.27-0.001-0.59-0.001-0.911-0.001-172.49 0-312.32 139.83-312.32 312.32 0 86.472 35.142 164.735 91.923 221.289l0.010 0.010c56.536 56.62 134.684 91.646 221.013 91.646s164.477-35.026 221.009-91.642l0.004-0.004c56.791-56.564 91.932-134.827 91.932-221.298 0-172.49-139.83-312.32-312.32-312.32-0.12 0-0.24 0-0.359 0h0.019zM418.702 789.333c-141.066-0.006-255.42-114.364-255.42-255.431 0-141.071 114.36-255.431 255.431-255.431s255.431 114.36 255.431 255.431c0 70.397-28.478 134.142-74.542 180.344l0.006-0.006c-45.991 46.381-109.736 75.094-180.187 75.094-0.253 0-0.506 0-0.759-0.001h0.039zM599.184 312.311l40.227 40.227 253.829-253.829-40.227-40.227-253.829 253.829z" />
<glyph unicode="&#xe943;" glyph-name="Security" d="M779.947 523.662h-56.889v95.004c-1.607 59.161-26.804 112.14-66.481 150.111l-0.079 0.075c-36.136 35.192-85.559 56.895-140.050 56.895-0.564 0-1.127-0.002-1.689-0.007l0.086 0.001c-1.191 0.024-2.594 0.038-4.001 0.038-114.949 0-208.319-92.391-209.9-206.965l-0.002-0.149v-96.711h-56.889v96.711c0.689 146.832 119.878 265.596 266.806 265.596 71.821 0 137.013-28.377 184.977-74.532l-0.086 0.082c50.525-48.414 82.452-115.889 84.19-190.828l0.006-0.319zM448.284 540.16h-56.889v64.284c0 66.608 53.996 120.604 120.604 120.604s120.604-53.996 120.604-120.604v0-60.302h-56.889v60.302c0 35.189-28.526 63.716-63.716 63.716s-63.716-28.526-63.716-63.716v0zM512 227.271c-51.527 0-93.298 41.771-93.298 93.298s41.771 93.298 93.298 93.298c51.527 0 93.298-41.771 93.298-93.298v0c0-51.527-41.771-93.298-93.298-93.298v0zM512 356.409c-20.108 0-36.409-16.301-36.409-36.409s16.301-36.409 36.409-36.409c20.108 0 36.409 16.301 36.409 36.409v0c0 20.108-16.301 36.409-36.409 36.409v0zM483.556 255.716h56.889v-92.729h-56.889v92.729zM880.64 10.524h-739.556v541.582h739.556zM197.973 67.413h625.778v427.804h-625.778z" />
<glyph unicode="&#xe944;" glyph-name="Settings" d="M512 260.267c-0.107 0-0.234 0-0.361 0-103.682 0-187.733 84.051-187.733 187.733s84.051 187.733 187.733 187.733c103.682 0 187.733-84.051 187.733-187.733 0-69.206-37.447-129.666-93.185-162.222l-0.89-0.48c-26.775-15.678-58.945-24.963-93.278-25.031h-0.019zM512 578.844c-0.327 0.003-0.714 0.005-1.102 0.005-23.662 0-45.844-6.336-64.943-17.404l0.622 0.333c-39.837-22.936-66.227-65.274-66.227-113.775 0-72.263 58.581-130.844 130.844-130.844s130.844 58.581 130.844 130.844c0 71.981-58.123 130.386-129.996 130.842h-0.043zM645.689-26.453h-267.378l-18.773 144.498c-21.839 10.259-40.495 21.256-58.007 33.754l1.118-0.758-131.982-56.32-136.533 232.107 113.778 88.178c-1.123 9.899-1.764 21.372-1.764 32.996s0.641 23.096 1.889 34.387l-0.125-1.391-113.778 88.178 136.533 232.107 134.258-56.889c16.398 11.756 35.055 22.753 54.675 32.052l2.214 0.944 16.498 145.067h267.947l18.204-144.498c21.838-10.255 40.494-21.252 58.004-33.752l-1.115 0.757 134.258 56.889 134.258-232.676-113.778-88.178c0-10.809 0-22.187 0-32.996s0-22.187 0-32.996l113.778-88.178-136.533-232.107-134.258 56.889c-16.402-11.772-35.060-22.77-54.686-32.058l-2.203-0.938zM427.804 30.436h167.822l16.498 127.431 13.653 5.689c27.817 11.453 51.825 25.594 73.479 42.598l-0.661-0.5 13.084 10.24 118.329-49.493 85.902 145.067-102.4 79.644v16.498c2.060 12.653 3.237 27.238 3.237 42.098s-1.177 29.444-3.443 43.666l0.206-1.568v16.498l102.4 76.231-84.196 145.067-118.329-49.493-13.084 10.24c-21.466 16.615-46.055 30.779-72.464 41.368l-2.061 0.73-15.36 6.258-16.498 127.431h-165.547l-16.498-127.431-13.653-6.258c-27.815-11.469-51.822-25.609-73.484-42.601l0.666 0.503-13.084-10.24-120.036 49.493-84.196-145.067 102.4-79.644v-16.498c-2.379-11.56-4.202-25.408-5.076-39.513l-0.044-0.878c0.191-15.020 1.425-29.584 3.634-43.827l-0.221 1.729v-16.498l-100.693-77.938 83.627-145.067 118.329 49.493 13.084-10.24c21.623-16.655 46.407-30.827 73.022-41.374l2.071-0.724 15.36-6.258zM512 260.267c-103.346 0.443-186.953 84.324-186.953 187.732 0 103.682 84.051 187.733 187.733 187.733 34.475 0 66.779-9.293 94.545-25.51l-0.89 0.48c54.79-33.444 90.809-92.904 90.809-160.777 0-85.372-56.985-157.433-134.993-180.224l-1.327-0.332c-14.437-4.896-31.134-8.155-48.451-9.082l-0.474-0.020zM512 578.844c-71.917-0.456-130.040-58.861-130.040-130.842 0-72.263 58.581-130.844 130.844-130.844s130.844 58.581 130.844 130.844c0 48.502-26.39 90.84-65.593 113.439l-0.633 0.337c-18.525 10.735-40.757 17.070-64.469 17.070-0.335 0-0.67-0.001-1.004-0.004h0.051z" />
<glyph unicode="&#xe945;" glyph-name="Suitcase" d="M967.111 60.018h-910.222v667.876h910.222zM113.778 116.907h796.444v554.098h-796.444zM83.627 590.791h856.747v-56.889h-856.747v56.889zM669.582 699.449h-56.889v79.644h-201.387v-79.644h-56.889v136.533h315.164v-136.533zM442.596 557.227h138.809v-87.609h-138.809v87.609z" />
<glyph unicode="&#xe946;" glyph-name="Table" d="M170.098 615.253h151.893v-68.267h-151.893v68.267zM170.098 446.293h151.893v-68.267h-151.893v68.267zM168.391 280.747h151.893v-68.267h-151.893v68.267zM703.716 615.253h151.893v-68.267h-151.893v68.267zM703.716 446.293h151.893v-68.267h-151.893v68.267zM702.009 280.747h151.893v-68.267h-151.893v68.267zM436.907 615.253h151.893v-68.267h-151.893v68.267zM436.907 446.293h151.893v-68.267h-151.893v68.267zM435.2 280.747h151.893v-68.267h-151.893v68.267zM56.889 815.502v-735.004h910.222v735.004zM910.222 137.387h-796.444v554.098h796.444z" />
<glyph unicode="&#xe947;" glyph-name="Target" d="M512-35.556c-267.060 0-483.556 216.495-483.556 483.556s216.495 483.556 483.556 483.556c267.060 0 483.556-216.495 483.556-483.556v0c-0.324-266.93-216.625-483.232-483.524-483.556h-0.031zM512 874.667c-235.641 0-426.667-191.025-426.667-426.667s191.025-426.667 426.667-426.667c235.641 0 426.667 191.025 426.667 426.667v0c-0.323 235.511-191.155 426.343-426.635 426.667h-0.032zM512 166.969c-155.209 0-281.031 125.822-281.031 281.031s125.822 281.031 281.031 281.031c155.209 0 281.031-125.822 281.031-281.031v0c-0.323-155.079-125.952-280.708-281-281.031h-0.031zM512 672.142c-123.79 0-224.142-100.352-224.142-224.142s100.352-224.142 224.142-224.142c123.79 0 224.142 100.352 224.142 224.142v0c-0.323 123.66-100.482 223.82-224.112 224.142h-0.031zM512 375.182c-40.216 0-72.818 32.602-72.818 72.818s32.602 72.818 72.818 72.818c40.216 0 72.818-32.602 72.818-72.818v0c0-40.216-32.602-72.818-72.818-72.818v0zM512 463.929c-8.797 0-15.929-7.132-15.929-15.929s7.132-15.929 15.929-15.929c8.797 0 15.929 7.132 15.929 15.929v0c0 8.797-7.132 15.929-15.929 15.929v0zM512 391.111c-31.419 0-56.889 25.47-56.889 56.889s25.47 56.889 56.889 56.889c31.419 0 56.889-25.47 56.889-56.889v0c0-31.419-25.47-56.889-56.889-56.889v0zM512 448v0z" />
<glyph unicode="&#xe948;" glyph-name="Time" d="M512-35.556c-225.902 0-409.031 183.129-409.031 409.031s183.129 409.031 409.031 409.031c225.902 0 409.031-183.129 409.031-409.031v0c-0.323-225.771-183.26-408.708-409-409.031h-0.031zM512 725.618c-194.483 0-352.142-157.659-352.142-352.142s157.659-352.142 352.142-352.142c194.483 0 352.142 157.659 352.142 352.142v0c-0.323 194.352-157.789 351.819-352.111 352.142h-0.031zM483.556 903.111h56.889v-149.049h-56.889v149.049zM344.747 931.556h333.938v-56.889h-333.938v56.889zM362.382 221.013l-34.702 45.511 161.564 121.173v209.92h56.889v-238.364l-183.751-138.24z" />
<glyph unicode="&#xe949;" glyph-name="Transfer" d="M649.671 445.724l-40.391 40.391 182.044 182.044-182.044 182.613 40.391 40.391 222.436-223.004-222.436-222.436zM148.48 696.604h647.964v-56.889h-647.964v56.889zM374.329 4.836l-222.436 223.004 222.436 222.436 40.391-40.391-182.044-182.044 182.044-182.613-40.391-40.391zM220.16 256.284h647.964v-56.889h-647.964v56.889z" />
<glyph unicode="&#xe94a;" glyph-name="Trash" d="M815.218-41.813h-606.436v630.898h56.889v-574.009h492.658v574.009h56.889v-630.898zM893.724 561.778h-763.449v203.093h763.449zM187.164 618.667h649.671v89.316h-649.671zM671.289 735.858h-56.889v110.364h-204.8v-110.364h-56.889v167.253h318.578v-167.253zM354.418 462.222h56.889v-343.609h-56.889v343.609zM485.262 462.222h56.889v-343.609h-56.889v343.609zM612.693 462.222h56.889v-343.609h-56.889v343.609z" />
<glyph unicode="&#xe94b;" glyph-name="Vertical_ellipsis" d="M512 648.249c-21.051 0-38.116 17.065-38.116 38.116s17.065 38.116 38.116 38.116c21.051 0 38.116-17.065 38.116-38.116v0c0-21.051-17.065-38.116-38.116-38.116v0zM512 618.667c-36.76 0-66.56 29.8-66.56 66.56s29.8 66.56 66.56 66.56c36.76 0 66.56-29.8 66.56-66.56v0c0-36.76-29.8-66.56-66.56-66.56v0zM512 696.604c-5.341 0-9.671-4.33-9.671-9.671v0c0-10.809 19.342-10.809 19.342 0 0 5.341-4.33 9.671-9.671 9.671v0zM512 409.884c-21.051 0-38.116 17.065-38.116 38.116s17.065 38.116 38.116 38.116c21.051 0 38.116-17.065 38.116-38.116v0c0-21.051-17.065-38.116-38.116-38.116v0zM512 381.44c-36.76 0-66.56 29.8-66.56 66.56s29.8 66.56 66.56 66.56c36.76 0 66.56-29.8 66.56-66.56v0c0-36.76-29.8-66.56-66.56-66.56v0zM512 457.671c-5.341 0-9.671-4.33-9.671-9.671v0c0-10.809 19.342-10.809 19.342 0 0 5.341-4.33 9.671-9.671 9.671v0zM512 170.951c-21.051 0-38.116 17.065-38.116 38.116s17.065 38.116 38.116 38.116c21.051 0 38.116-17.065 38.116-38.116v0c0-21.051-17.065-38.116-38.116-38.116v0zM512 142.507c-36.76 0-66.56 29.8-66.56 66.56s29.8 66.56 66.56 66.56c36.76 0 66.56-29.8 66.56-66.56v0c0-36.76-29.8-66.56-66.56-66.56v0zM512 220.444c-5.341 0-9.671-4.33-9.671-9.671v0c0-10.809 19.342-10.809 19.342 0 0 5.341-4.33 9.671-9.671 9.671v0z" />
<glyph unicode="&#xe94c;" glyph-name="Video" d="M410.738 236.942v381.724l306.631-190.578zM467.627 515.698v-176.356l141.653 88.178zM967.111 65.707h-910.222v729.884h910.222zM113.778 122.596h796.444v616.107h-796.444z" />
<glyph unicode="&#xe94d;" glyph-name="Waiver" d="M699.164 240.924v0-77.369h-398.222v535.893h398.222v-56.889h40.391v97.28h-479.573v-617.813h479.573v119.467h-38.684zM310.613 163.556v0zM692.907 703.431v0zM736.711 646.542v0zM267.947 738.133v0zM261.689 128.284v-5.12zM566.044 564.053v40.391h-205.369v-40.391h205.369zM362.382 504.889h-1.707v-40.391h164.409v40.391h-162.702zM523.378 364.373h1.707v40.391h-164.409v-40.391h162.702zM360.676 303.502v-38.684h204.8v40.391h-204.8zM369.209 303.502v0zM868.124 509.44c-16.833 39.105-47.366 69.638-85.416 86.066l-1.055 0.405c-18.343 7.915-39.698 12.519-62.129 12.519-0.358 0-0.716-0.001-1.073-0.004h0.055c-0.335 0.002-0.732 0.004-1.128 0.004-22.588 0-44.1-4.603-63.651-12.922l1.064 0.402c-20.145-8.493-37.339-20.215-51.764-34.697l-0.005-0.005c-14.331-14.522-26.028-31.687-34.285-50.692l-0.417-1.077c-7.99-18.741-12.634-40.544-12.634-63.431s4.645-44.69 13.043-64.516l-0.408 1.085c8.675-20.082 20.371-37.247 34.72-51.787l-0.018 0.018c14.422-14.5 31.618-26.223 50.728-34.311l1.041-0.391c18.487-7.917 39.999-12.519 62.587-12.519 0.397 0 0.793 0.001 1.189 0.004h-0.061c0.302-0.002 0.66-0.003 1.018-0.003 22.431 0 43.786 4.603 63.173 12.917l-1.045-0.398c39.105 16.833 69.638 47.366 86.066 85.416l0.405 1.055c7.99 18.741 12.634 40.544 12.634 63.431s-4.645 44.69-13.043 64.516l0.408-1.085zM840.249 448c0.005-0.404 0.008-0.882 0.008-1.36 0-67.236-54.506-121.742-121.742-121.742-34.1 0-64.925 14.020-87.026 36.609l-0.021 0.022c-21.72 21.893-35.143 52.045-35.143 85.333s13.423 63.441 35.151 85.341l-0.008-0.008c22.135 22.137 52.714 35.83 86.492 35.83 66.747 0 121.006-53.465 122.288-119.905l0.002-0.12zM760.036 448c-4.418 3.402-9.491 6.278-14.945 8.392l-0.415 0.142-15.36 5.12v30.72c4.386-0.345 8.445-1.359 12.205-2.941l-0.258 0.096c4.64-1.724 8.617-4.237 11.962-7.41l-0.015 0.015 21.618 22.756c-6.254 5.205-13.649 9.291-21.731 11.824l-0.455 0.123c-6.7 2.087-14.468 3.509-22.493 3.97l-0.262 0.012v14.791h-17.636v-14.222c-5.639-0.463-10.857-1.675-15.75-3.544l0.39 0.131c-5.895-2.056-10.992-4.953-15.449-8.604l0.089 0.070c-4.423-3.75-8.049-8.285-10.694-13.408l-0.115-0.245c-2.53-5.045-4.010-10.992-4.010-17.285 0-0.524 0.010-1.045 0.031-1.563l-0.002 0.075c-0.004-0.197-0.006-0.429-0.006-0.662 0-6.185 1.473-12.026 4.088-17.191l-0.1 0.218c3.112-4.655 7.11-8.471 11.78-11.285l0.167-0.093c4.236-3.271 9.135-5.969 14.421-7.85l0.37-0.115 15.929-5.12v-32.996h-5.689l-7.396 2.844-7.396 4.551-10.24 5.12-8.533-9.102-10.24-10.24c6.691-6.090 14.644-10.928 23.405-14.069l0.488-0.153c7.547-2.757 16.275-4.59 25.355-5.109l0.245-0.011v-14.791h17.636v14.791c5.958 0.201 11.604 1.226 16.928 2.966l-0.43-0.122c5.902 2.017 11.005 4.919 15.44 8.598l-0.080-0.064c4.523 3.859 8.171 8.599 10.702 13.969l0.107 0.253c2.525 5.52 3.996 11.973 3.996 18.771 0 0.401-0.005 0.801-0.015 1.2l0.001-0.059c0.013 0.37 0.020 0.806 0.020 1.243 0 6.631-1.693 12.866-4.671 18.297l0.1-0.198c-3.729 3.064-8.066 5.568-12.777 7.297l-0.308 0.099zM711.68 491.804v-26.169c-3.092 0.972-5.755 2.533-7.981 4.566l0.016-0.015c-2.28 2.352-3.685 5.563-3.685 9.102s1.405 6.75 3.688 9.106l-0.003-0.003c2.185 1.919 4.877 3.315 7.848 3.961l0.116 0.021zM711.68 464.498v0zM726.471 398.507v0zM739.556 404.764c-2.209-2.223-5.177-3.69-8.482-3.979l-0.051-0.004v28.444c3.27-1.072 6.106-2.621 8.589-4.594l-0.056 0.043c2.15-2.16 3.478-5.138 3.478-8.427 0-0.438-0.024-0.871-0.070-1.297l0.005 0.053c0.013-0.229 0.020-0.496 0.020-0.765 0-3.616-1.297-6.928-3.452-9.498l0.019 0.023zM728.178 491.804v0 0zM728.178 371.2v0zM773.12 504.889v0zM659.342 391.111v0zM987.022 543.573c-7.055 34.261-16.671 64.331-29.048 92.928l1.173-3.043c-13.566 31.66-28.606 58.768-46.006 84.13l1.063-1.641c-36.395 52.889-80.799 97.293-131.978 132.574l-1.711 1.115c-23.719 16.332-50.827 31.371-79.363 43.736l-3.126 1.206c-25.722 11.416-55.969 21.223-87.375 27.897l-3.078 0.548c-28.733 6.044-61.749 9.505-95.573 9.505s-66.84-3.461-98.713-10.047l3.139 0.542c-34.264-7.060-64.334-16.676-92.932-29.050l3.048 1.174c-31.661-13.571-58.769-28.61-84.133-46.007l1.644 1.065c-52.889-36.395-97.293-80.799-132.574-131.978l-1.115-1.711c-16.336-23.72-31.376-50.828-43.738-79.366l-1.205-3.123c-11.421-25.725-21.228-55.973-27.898-87.38l-0.546-3.073c-6.044-28.733-9.505-61.749-9.505-95.573s3.461-66.84 10.047-98.713l-0.542 3.139c7.055-34.261 16.671-64.331 29.048-92.928l-1.173 3.043c13.566-31.66 28.606-58.768 46.006-84.13l-1.063 1.641c36.395-52.889 80.799-97.293 131.978-132.574l1.711-1.115c23.719-16.332 50.827-31.371 79.363-43.736l3.126-1.206c25.551-11.2 55.621-20.816 86.826-27.341l3.058-0.535c28.733-6.044 61.749-9.505 95.573-9.505s66.84 3.461 98.713 10.047l-3.139-0.542c34.264 7.060 64.334 16.676 92.932 29.050l-3.048-1.174c31.661 13.571 58.769 28.61 84.133 46.007l-1.644-1.065c52.889 36.395 97.293 80.799 132.574 131.978l1.115 1.711c16.336 23.72 31.376 50.828 43.738 79.366l1.205 3.123c11.204 25.554 20.821 55.623 27.342 86.83l0.534 3.054c6.044 28.733 9.505 61.749 9.505 95.573s-3.461 66.84-10.047 98.713l0.542-3.139zM749.227 93.013c-21.083-14.319-45.213-27.469-70.609-38.21l-2.777-1.043c-22.537-9.677-49.177-18.111-76.775-23.954l-2.87-0.509c-25.652-5.572-55.12-8.764-85.333-8.764s-59.681 3.191-88.085 9.256l2.752-0.492c-30.466 6.351-57.107 14.785-82.524 25.545l2.88-1.083c-28.174 11.784-52.303 24.934-74.88 40.206l1.493-0.952c-24.242 16.365-45.431 33.579-64.99 52.469l0.137-0.131c-18.755 19.423-35.969 40.612-51.278 63.196l-1.059 1.657c-14.328 21.085-27.478 45.215-38.213 70.615l-1.040 2.771c-9.677 22.537-18.111 49.177-23.954 76.775l-0.509 2.87c-4.41 22.659-6.934 48.716-6.934 75.362 0 3.306 0.039 6.604 0.116 9.892l-0.009-0.489c-0.001 0.313-0.001 0.683-0.001 1.054 0 29.040 3.108 57.354 9.011 84.627l-0.476-2.623c6.366 29.589 14.791 55.447 25.512 80.075l-1.049-2.706c11.732 27.476 24.871 51.037 40.13 73.015l-0.877-1.335c12.256 16.699 24.379 31.349 37.277 45.269l-0.299-0.327 597.902-597.333c-12.868-11.809-26.776-23.19-41.31-33.762l-1.357-0.94zM930.702 363.804c-6.351-30.466-14.785-57.107-25.545-82.524l1.083 2.88c-11.775-28.171-24.925-52.301-40.202-74.874l0.949 1.487c-11.346-15.691-22.541-29.413-34.461-42.461l0.328 0.364-597.902 596.196c12.019 11.138 25.004 21.776 38.615 31.598l1.207 0.829c21.042 14.16 45.162 27.301 70.495 38.152l2.891 1.101c22.537 9.677 49.177 18.111 76.775 23.954l2.87 0.509c25.109 5.426 53.954 8.534 83.525 8.534 0.236 0 0.472 0 0.708-0.001h-0.037c0.445 0.002 0.971 0.002 1.497 0.002 29.231 0 57.834-2.692 85.573-7.841l-2.875 0.443c30.343-5.68 57.052-13.557 82.563-23.789l-2.918 1.033c28.189-11.141 52.349-23.75 74.972-38.517l-1.585 0.971c24.341-15.891 45.551-32.943 64.94-51.854l-0.087 0.085c18.758-19.423 35.972-40.611 51.279-63.197l1.059-1.656c14.324-21.085 27.474-45.215 38.212-70.613l1.041-2.774c9.677-22.537 18.111-49.177 23.954-76.775l0.509-2.87c5.572-25.652 8.764-55.12 8.764-85.333s-3.191-59.681-9.256-88.085l0.492 2.752z" />
<glyph unicode="&#xe94e;" glyph-name="Doctor" d="M596.764 42.382c-113.778 0-251.449 91.591-251.449 348.729h56.889c0-177.493 76.231-291.84 194.56-291.84 131.982 0 159.858 159.858 159.858 294.116h56.889c0-304.924-135.964-351.004-216.747-351.004zM781.084 365.511c-69.64 0.962-125.724 57.642-125.724 127.42 0 70.378 57.053 127.431 127.431 127.431 70.374 0 127.425-57.046 127.431-127.419v-0.001c0-0.003 0-0.007 0-0.011 0-70.378-57.053-127.431-127.431-127.431-0.6 0-1.199 0.004-1.797 0.012l0.091-0.001zM781.084 563.484c-38.218-0.954-68.836-32.162-68.836-70.522 0-38.959 31.583-70.542 70.542-70.542 38.952 0 70.53 31.571 70.542 70.52v0.001c-0.942 38.227-32.155 68.857-70.522 68.857-0.607 0-1.213-0.008-1.816-0.023l0.089 0.002zM378.88 376.889c0 0-0.001 0-0.001 0-112.594 0-203.907 91.113-204.23 203.631v265.702h96.142v-56.889h-39.253v-208.782c0-81.218 65.84-147.058 147.058-147.058s147.058 65.84 147.058 147.058v0 208.782h-39.253v56.889h96.142v-265.671c-0.323-112.35-91.313-203.34-203.631-203.662h-0.031z" />
<glyph unicode="&#xe94f;" glyph-name="Medical" d="M512 67.413l-13.653 7.396c-18.204 10.24-448.284 246.898-448.284 495.502 0.324 140.512 114.305 254.293 254.862 254.293 0 0 0.001 0 0.001 0v0c86.162-4.465 160.999-49.251 206.486-115.711l0.589-0.911c45.467 67.245 120.586 111.458 206.161 113.77l0.346 0.007c140.757 0 254.862-114.106 254.862-254.862v0c0-248.036-430.080-485.262-448.284-495.502zM304.924 767.716c0 0-0.001 0-0.001 0-109.138 0-197.649-88.312-197.972-197.374v-0.031c0-192.284 332.8-398.222 405.049-437.476 72.249 41.529 405.049 245.191 405.049 437.476 0 109.338-88.636 197.973-197.973 197.973v0c-77.938 0-125.156-43.804-184.32-124.018l-22.756-32.427-22.756 32.427c-59.164 84.196-117.76 123.449-184.32 123.449zM560.356 268.8l-120.604 206.507-37.547-65.991h-169.529v56.889h136.533l69.404 124.018 121.173-208.213 59.733 102.4h171.804v-56.889h-139.378l-91.591-158.72z" />
<glyph unicode="&#xe950;" glyph-name="Data" horiz-adv-x="1025" d="M48.924 911.644v-927.289h927.289v927.289zM919.324 41.244h-813.511v813.511h813.511zM367.502 387.129c114.365 0 207.076 92.711 207.076 207.076s-92.711 207.076-207.076 207.076c-114.365 0-207.076-92.711-207.076-207.076v0c0-114.365 92.711-207.076 207.076-207.076v0zM367.502 744.391v0-150.187l106.382 105.813c27.288-27.197 44.173-64.817 44.173-106.382 0-82.946-67.241-150.187-150.187-150.187s-150.187 67.241-150.187 150.187c0 82.816 67.031 149.977 149.798 150.186h0.020zM501.76 346.169h56.889v-250.88h-56.889v250.88zM808.391 516.836h56.889v-421.547h-56.889v421.547zM604.16 396.8h56.889v-300.942h-56.889v300.942zM705.991 453.689h56.889v-357.831h-56.889v357.831z" />
<glyph unicode="&#xe951;" glyph-name="Flag" d="M219.591 819.484h56.889v-808.391h-56.889v808.391zM219.591 331.378v571.733l657.636-284.444zM276.48 814.933v-398.222l455.111 198.542z" />
<glyph unicode="&#xe952;" glyph-name="Filter" d="M625.778 5.973l-227.556 131.413v341.333l-306.062 389.689h839.68l-306.062-391.396zM455.111 169.813l113.778-63.147v389.689l248.036 315.164h-607.573l245.76-315.164zM428.942 515.129h166.116v-56.889h-166.116v56.889z" />
<glyph unicode="&#xe953;" glyph-name="Bank_check" horiz-adv-x="1025" d="M379.449 236.373h292.978v-56.889h-292.978v56.889zM379.449 335.929h473.884v-56.889h-473.884v56.889zM379.449 438.898h91.591v-56.889h-91.591v56.889zM311.751 309.76c-6.22 4.754-13.36 8.781-21.027 11.746l-0.591 0.201-23.324 7.964v47.218c7.264-0.331 14.060-1.973 20.277-4.694l-0.366 0.143c6.861-2.712 12.726-6.568 17.644-11.386l-0.009 0.009 28.444 32.427c-8.831 7.217-19.264 12.866-30.648 16.33l-0.641 0.168c-10.287 3.184-22.167 5.232-34.454 5.682l-0.248 0.007v19.911h-21.618v-20.48c-8.528-0.565-16.467-2.395-23.861-5.306l0.536 0.186c-8.078-2.937-15.056-6.984-21.167-12.042l0.118 0.095c-6.309-5.289-11.466-11.719-15.2-18.999l-0.16-0.343c-3.592-7.248-5.694-15.783-5.694-24.809 0-0.278 0.002-0.556 0.006-0.833v0.042c-0.027-0.629-0.042-1.368-0.042-2.11 0-8.329 1.904-16.213 5.301-23.241l-0.139 0.319c3.586-6.784 8.364-12.47 14.109-16.981l0.113-0.086c5.867-4.636 12.644-8.482 19.965-11.21l24.977-8.133v-51.769h-10.809l-11.378 3.982-10.809 6.258c-3.434 2.356-6.419 4.98-9.062 7.919l-0.040 0.046-15.36-16.498-15.929-13.653c9.564-8.571 20.931-15.355 33.438-19.701l0.695-0.21c11.448-4.203 24.672-6.87 38.447-7.388l0.238-0.007v-21.618h21.618v21.618c9.041 0.272 17.608 1.917 25.625 4.733l-0.594-0.182c8.308 2.798 15.494 6.864 21.729 12.036l-0.111-0.089c6.452 5.361 11.64 12.006 15.213 19.565l0.147 0.346c3.612 7.786 5.718 16.899 5.718 26.504 0 0.682-0.011 1.362-0.032 2.039l0.002-0.099c0.018 0.514 0.028 1.119 0.028 1.725 0 9.16-2.328 17.776-6.424 25.29l0.138-0.277c-3.92 6.907-8.856 12.75-14.685 17.55l-0.107 0.085zM245.191 334.222c-6.82 0.963-12.843 3.814-17.678 8.001l0.043-0.036c-3.522 3.327-5.715 8.030-5.715 13.245 0 0.344 0.010 0.686 0.028 1.025l-0.002-0.047c-0.019 0.308-0.029 0.668-0.029 1.030 0 5.486 2.426 10.405 6.265 13.742l0.022 0.019c3.887 3.271 8.741 5.511 14.077 6.242l0.145 0.016zM281.6 246.044c-4.091-4.092-9.694-6.671-15.9-6.826l-0.029-0.001v46.649c5.9-1.725 11.026-4.456 15.443-8.029l-0.083 0.065c3.871-3.549 6.288-8.629 6.288-14.273 0-0.382-0.011-0.762-0.033-1.139l0.002 0.052c0.027-0.418 0.043-0.906 0.043-1.398 0-5.805-2.174-11.103-5.752-15.123l0.020 0.023zM970.524 705.138l-134.258 134.258-288.996-288.996h-481.849v-481.849h893.156v481.849h-142.791zM836.267 758.613l54.044-54.044-155.307-154.169-113.778-113.778h-52.338v56.32l56.889 56.889zM901.689 493.511v-368.071h-779.378v368.071h389.689v-113.778h134.258l113.778 113.778z" />
<glyph unicode="&#xe954;" glyph-name="Registration" horiz-adv-x="1025" d="M784.498-35.556h-726.471v944.924h726.471v-142.791h-56.889v85.902h-612.693v-831.147h612.693v116.622h56.889v-173.511zM764.587 203.947c-135.101 0-244.622 109.521-244.622 244.622s109.521 244.622 244.622 244.622c135.101 0 244.622-109.521 244.622-244.622 0-0.2 0-0.4-0.001-0.6v0.031c-0.645-134.727-109.85-243.732-244.591-244.053h-0.031zM764.587 636.302c-103.682-0.001-187.732-84.051-187.732-187.733s84.051-187.733 187.733-187.733c103.482 0 187.409 83.727 187.732 187.134v0.031c0.001 0.169 0.001 0.369 0.001 0.569 0 103.682-84.051 187.733-187.733 187.733 0 0-0.001 0-0.001 0v0zM856.747 477.013h-63.716v63.716h-56.889v-63.716h-63.716v-56.889h63.716v-64.284h56.889v64.284h63.716v56.889zM515.982 159.004h-358.4v180.338c0 18.204 8.533 52.338 65.422 72.818 31.881 10.866 68.607 17.138 106.798 17.138 2.454 0 4.902-0.026 7.344-0.077l-0.365 0.006c83.058 0 180.338-23.324 180.338-89.884zM214.471 215.893h244.622v123.449c0 9.671-42.098 32.996-123.449 32.996s-121.173-21.618-121.173-32.996zM336.782 456.533c-62.838 0-113.778 50.94-113.778 113.778s50.94 113.778 113.778 113.778c62.838 0 113.778-50.94 113.778-113.778v0 0c0-62.838-50.94-113.778-113.778-113.778v0zM336.782 623.787c-31.419 0-56.889-25.47-56.889-56.889s25.47-56.889 56.889-56.889c31.419 0 56.889 25.47 56.889 56.889v0c0 31.419-25.47 56.889-56.889 56.889v0z" />
<glyph unicode="&#xe955;" glyph-name="News" horiz-adv-x="1025" d="M160.427 797.867v-149.049h-109.796v-664.462h922.738v813.511zM160.427 41.813h-52.907v550.116h52.907zM916.48 41.813h-699.164v699.164h699.164zM307.769 190.293h364.089v-56.889h-364.089v56.889zM652.516 648.818h167.253v-56.889h-167.253v56.889zM652.516 495.787h167.253v-56.889h-167.253v56.889zM307.769 343.324h512v-56.889h-512v56.889zM580.836 648.818h-273.067v-209.92h273.636zM523.947 495.787h-159.858v96.142h160.427z" />
<glyph unicode="&#xe956;" glyph-name="Error_solid" horiz-adv-x="1025" d="M512 926.436l-479.004-872.107h963.129zM469.333 590.222h91.022v-244.053h-91.022zM512 200.533c-29.102 0.154-52.635 23.782-52.635 52.906 0 29.22 23.687 52.907 52.907 52.907s52.907-23.687 52.907-52.907c0-14.677-5.977-27.959-15.629-37.543l-0.003-0.003c-9.213-9.487-22.088-15.374-36.338-15.374-0.425 0-0.849 0.005-1.271 0.016l0.063-0.001z" />
</font>
</defs>
</svg>
